<svg viewBox="0 0 330 200" xmlns="http://www.w3.org/2000/svg"><g><g><g><g><g><line x1="59.98000144958496" y1="177.61999988555908" x2="54.98000144958496" y2="177.61999988555908" style="visibility: inherit;" fill="rgb(0, 0, 0)" stroke="rgb(204, 204, 204)" stroke-width="1px"></line><line x1="59.98000144958496" y1="157.88444434271918" x2="54.98000144958496" y2="157.88444434271918" style="visibility: inherit;" fill="rgb(0, 0, 0)" stroke="rgb(204, 204, 204)" stroke-width="1px"></line><line x1="59.98000144958496" y1="138.14888879987927" x2="54.98000144958496" y2="138.14888879987927" style="visibility: inherit;" fill="rgb(0, 0, 0)" stroke="rgb(204, 204, 204)" stroke-width="1px"></line><line x1="59.98000144958496" y1="118.4133332570394" x2="54.98000144958496" y2="118.4133332570394" style="visibility: inherit;" fill="rgb(0, 0, 0)" stroke="rgb(204, 204, 204)" stroke-width="1px"></line><line x1="59.98000144958496" y1="98.67777771419948" x2="54.98000144958496" y2="98.67777771419948" style="visibility: inherit;" fill="rgb(0, 0, 0)" stroke="rgb(204, 204, 204)" stroke-width="1px"></line><line x1="59.98000144958496" y1="78.94222217135959" x2="54.98000144958496" y2="78.94222217135959" style="visibility: inherit;" fill="rgb(0, 0, 0)" stroke="rgb(204, 204, 204)" stroke-width="1px"></line><line x1="59.98000144958496" y1="59.2066666285197" x2="54.98000144958496" y2="59.2066666285197" style="visibility: inherit;" fill="rgb(0, 0, 0)" stroke="rgb(204, 204, 204)" stroke-width="1px"></line><line x1="59.98000144958496" y1="39.47111108567977" x2="54.98000144958496" y2="39.47111108567977" style="visibility: inherit;" fill="rgb(0, 0, 0)" stroke="rgb(204, 204, 204)" stroke-width="1px"></line><line x1="59.98000144958496" y1="19.735555542839887" x2="54.98000144958496" y2="19.735555542839887" style="visibility: inherit;" fill="rgb(0, 0, 0)" stroke="rgb(204, 204, 204)" stroke-width="1px"></line><line x1="59.98000144958496" y1="0" x2="54.98000144958496" y2="0" style="visibility: inherit;" fill="rgb(0, 0, 0)" stroke="rgb(204, 204, 204)" stroke-width="1px"></line></g><g transform="translate(49.98000144958496, 0)"><text style="text-anchor: end; visibility: hidden; font-family: Roboto, sans-serif; font-size: 12px; font-weight: 200;" x="0" y="177.61999988555908" dx="0em" dy="0.3em" fill="rgb(33, 33, 33)" stroke="none" stroke-width="1px">0.015</text><text style="text-anchor: end; visibility: inherit; font-family: Roboto, sans-serif; font-size: 12px; font-weight: 200;" x="0" y="157.88444434271918" dx="0em" dy="0.3em" fill="rgb(33, 33, 33)" stroke="none" stroke-width="1px">0.02</text><text style="text-anchor: end; visibility: hidden; font-family: Roboto, sans-serif; font-size: 12px; font-weight: 200;" x="0" y="138.14888879987927" dx="0em" dy="0.3em" fill="rgb(33, 33, 33)" stroke="none" stroke-width="1px">0.025</text><text style="text-anchor: end; visibility: inherit; font-family: Roboto, sans-serif; font-size: 12px; font-weight: 200;" x="0" y="118.4133332570394" dx="0em" dy="0.3em" fill="rgb(33, 33, 33)" stroke="none" stroke-width="1px">0.03</text><text style="text-anchor: end; visibility: hidden; font-family: Roboto, sans-serif; font-size: 12px; font-weight: 200;" x="0" y="98.67777771419948" dx="0em" dy="0.3em" fill="rgb(33, 33, 33)" stroke="none" stroke-width="1px">0.035</text><text style="text-anchor: end; visibility: inherit; font-family: Roboto, sans-serif; font-size: 12px; font-weight: 200;" x="0" y="78.94222217135959" dx="0em" dy="0.3em" fill="rgb(33, 33, 33)" stroke="none" stroke-width="1px">0.04</text><text style="text-anchor: end; visibility: hidden; font-family: Roboto, sans-serif; font-size: 12px; font-weight: 200;" x="0" y="59.2066666285197" dx="0em" dy="0.3em" fill="rgb(33, 33, 33)" stroke="none" stroke-width="1px">0.045</text><text style="text-anchor: end; visibility: inherit; font-family: Roboto, sans-serif; font-size: 12px; font-weight: 200;" x="0" y="39.47111108567977" dx="0em" dy="0.3em" fill="rgb(33, 33, 33)" stroke="none" stroke-width="1px">0.05</text><text style="text-anchor: end; visibility: hidden; font-family: Roboto, sans-serif; font-size: 12px; font-weight: 200;" x="0" y="19.735555542839887" dx="0em" dy="0.3em" fill="rgb(33, 33, 33)" stroke="none" stroke-width="1px">0.055</text><text style="text-anchor: end; visibility: hidden; font-family: Roboto, sans-serif; font-size: 12px; font-weight: 200;" x="0" y="0" dx="0em" dy="0.3em" fill="rgb(33, 33, 33)" stroke="none" stroke-width="1px">0.06</text></g><line x1="59.98000144958496" y1="0" x2="59.98000144958496" y2="177.61999988555908" fill="rgb(0, 0, 0)" stroke="rgb(204, 204, 204)" stroke-width="1px"></line></g></g><g transform="translate(59, 0)" clip-path="url(#clip_0)"><clipPath id="clip_0"><rect width="270" height="177"></rect></clipPath><g><g><g><line x1="0" y1="0" x2="0" y2="177.61999988555908" fill="rgb(0, 0, 0)" stroke="rgb(66, 66, 66)" stroke-width="1px" opacity="0.25"></line><line x1="20.770769119262695" y1="0" x2="20.770769119262695" y2="177.61999988555908" fill="rgb(0, 0, 0)" stroke="rgb(66, 66, 66)" stroke-width="1px" opacity="0.25"></line><line x1="41.54153823852539" y1="0" x2="41.54153823852539" y2="177.61999988555908" fill="rgb(0, 0, 0)" stroke="rgb(66, 66, 66)" stroke-width="1px" opacity="0.25"></line><line x1="62.312307357788086" y1="0" x2="62.312307357788086" y2="177.61999988555908" fill="rgb(0, 0, 0)" stroke="rgb(66, 66, 66)" stroke-width="1px" opacity="0.25"></line><line x1="83.08307647705078" y1="0" x2="83.08307647705078" y2="177.61999988555908" fill="rgb(0, 0, 0)" stroke="rgb(66, 66, 66)" stroke-width="1px" opacity="0.25"></line><line x1="103.85384559631348" y1="0" x2="103.85384559631348" y2="177.61999988555908" fill="rgb(0, 0, 0)" stroke="rgb(66, 66, 66)" stroke-width="1px" opacity="0.25"></line><line x1="124.62461471557617" y1="0" x2="124.62461471557617" y2="177.61999988555908" fill="rgb(0, 0, 0)" stroke="rgb(66, 66, 66)" stroke-width="1px" opacity="0.25"></line><line x1="145.39538383483887" y1="0" x2="145.39538383483887" y2="177.61999988555908" fill="rgb(0, 0, 0)" stroke="rgb(66, 66, 66)" stroke-width="1px" opacity="0.25"></line><line x1="166.16615295410156" y1="0" x2="166.16615295410156" y2="177.61999988555908" fill="rgb(0, 0, 0)" stroke="rgb(66, 66, 66)" stroke-width="1px" opacity="0.25"></line><line x1="186.93692207336426" y1="0" x2="186.93692207336426" y2="177.61999988555908" fill="rgb(0, 0, 0)" stroke="rgb(66, 66, 66)" stroke-width="1px" opacity="0.25"></line><line x1="207.70769119262695" y1="0" x2="207.70769119262695" y2="177.61999988555908" fill="rgb(0, 0, 0)" stroke="rgb(66, 66, 66)" stroke-width="1px" opacity="0.25"></line><line x1="228.47846031188965" y1="0" x2="228.47846031188965" y2="177.61999988555908" fill="rgb(0, 0, 0)" stroke="rgb(66, 66, 66)" stroke-width="1px" opacity="0.25"></line><line x1="249.24922943115234" y1="0" x2="249.24922943115234" y2="177.61999988555908" fill="rgb(0, 0, 0)" stroke="rgb(66, 66, 66)" stroke-width="1px" opacity="0.25"></line><line x1="270.01999855041504" y1="0" x2="270.01999855041504" y2="177.61999988555908" fill="rgb(0, 0, 0)" stroke="rgb(66, 66, 66)" stroke-width="1px" opacity="0.25"></line></g><g><line x1="0" y1="177.61999988555908" x2="270.01999855041504" y2="177.61999988555908" fill="rgb(0, 0, 0)" stroke="rgb(66, 66, 66)" stroke-width="1px" opacity="0.25"></line><line x1="0" y1="157.88444434271918" x2="270.01999855041504" y2="157.88444434271918" fill="rgb(0, 0, 0)" stroke="rgb(66, 66, 66)" stroke-width="1px" opacity="0.25"></line><line x1="0" y1="138.14888879987927" x2="270.01999855041504" y2="138.14888879987927" fill="rgb(0, 0, 0)" stroke="rgb(66, 66, 66)" stroke-width="1px" opacity="0.25"></line><line x1="0" y1="118.4133332570394" x2="270.01999855041504" y2="118.4133332570394" fill="rgb(0, 0, 0)" stroke="rgb(66, 66, 66)" stroke-width="1px" opacity="0.25"></line><line x1="0" y1="98.67777771419948" x2="270.01999855041504" y2="98.67777771419948" fill="rgb(0, 0, 0)" stroke="rgb(66, 66, 66)" stroke-width="1px" opacity="0.25"></line><line x1="0" y1="78.94222217135959" x2="270.01999855041504" y2="78.94222217135959" fill="rgb(0, 0, 0)" stroke="rgb(66, 66, 66)" stroke-width="1px" opacity="0.25"></line><line x1="0" y1="59.2066666285197" x2="270.01999855041504" y2="59.2066666285197" fill="rgb(0, 0, 0)" stroke="rgb(66, 66, 66)" stroke-width="1px" opacity="0.25"></line><line x1="0" y1="39.47111108567977" x2="270.01999855041504" y2="39.47111108567977" fill="rgb(0, 0, 0)" stroke="rgb(66, 66, 66)" stroke-width="1px" opacity="0.25"></line><line x1="0" y1="19.735555542839887" x2="270.01999855041504" y2="19.735555542839887" fill="rgb(0, 0, 0)" stroke="rgb(66, 66, 66)" stroke-width="1px" opacity="0.25"></line><line x1="0" y1="0" x2="270.01999855041504" y2="0" fill="rgb(0, 0, 0)" stroke="rgb(66, 66, 66)" stroke-width="1px" opacity="0.25"></line></g></g></g><g><g><line x1="0" y1="236.82666651407877" x2="270.01999855041504" y2="236.82666651407877" fill="rgb(0, 0, 0)" stroke="rgb(153, 153, 153)" stroke-width="1.5px"></line></g></g><g><g><line x1="20.770769119262695" y1="0" x2="20.770769119262695" y2="177.61999988555908" fill="rgb(0, 0, 0)" stroke="rgb(153, 153, 153)" stroke-width="1.5px"></line></g></g><g><g><g><g><g><path style="fill: none;" stroke="rgb(255, 112, 67)" stroke-width="2px" d="M31.98698444366455,-0.2944548979538867L32.4023998260498,4.250698764185051L32.81781520843506,7.936946691130004L33.23323059082031,10.479608580673354L33.64864597320557,7.242900546361374L34.064061355590816,15.244176925451344L34.47947673797607,14.093061502546714L34.89489212036133,15.503083808619234L35.31030750274658,21.04668596064385L35.72572288513184,17.460039369941747L36.141138267517086,25.097887912837123L36.55655364990234,31.55019834592911L36.971969032287596,27.996290635904536L37.38738441467285,29.969199270269655L37.80279979705811,38.99127754867832L38.218215179443355,41.916602562614926L38.63363056182861,47.55157174170952L39.049045944213866,51.50309720234069L39.46446132659912,47.18533097854966L39.879876708984376,45.80051616127785L40.295292091369625,53.31210044751123L40.71070747375488,50.179394310688835L41.126122856140135,63.326990478158535L41.54153823852539,62.45089576773575L41.95695362091064,62.01216978594796L42.372369003295894,62.35476219229039L42.78778438568115,61.568235548210204L43.203199768066405,67.49362980930465L43.61861515045166,64.0837824236596L44.03403053283691,67.98932546684205L44.449445915222164,74.12767671248201L44.86486129760742,68.69026556870058L45.280276679992674,70.8555678948227L45.69569206237793,70.11966175536612L46.11110744476318,71.78976709548051L46.52652282714843,77.72886704641994L46.94193820953369,78.9333662105177L47.357353591918944,80.56009355650511L47.7727689743042,78.28573393107689L48.18818435668945,80.54301709336079L48.6035997390747,86.40932132120152L49.01901512145996,89.83783823452772L49.43443050384521,91.68946104064256L49.84984588623047,94.24359849381888L50.26526126861572,94.33084685404874L50.68067665100097,94.98071308865636L51.09609203338623,93.17999907557234L51.51150741577148,98.23931740985579L51.92692279815674,98.40920194994195L52.34233818054199,93.37695465210892L52.75775356292724,98.18646990567986L53.1731689453125,93.73655092058925L53.58858432769775,94.65908431598247L54.00399971008301,94.63315557549224L54.419415092468256,100.9207256550295L54.83483047485351,104.84113836314704L55.25024585723877,105.8600209332891L55.66566123962402,104.34853219085298L56.08107662200928,104.90683539036269L56.496492004394526,101.48042318726885L56.91190738677978,105.82798538803229L57.327322769165036,105.1049833784325L57.74273815155029,105.85549435457442L58.15815353393555,100.60177888144761L58.573568916320795,106.48438460218621L58.98898429870605,107.00197366443474L59.404399681091306,106.05714101430087L59.81981506347656,106.02755991514783L60.235230445861816,110.3436520472283L60.650645828247065,107.98398086380712L61.06606121063232,106.87625918440155L61.481476593017575,108.46878143607876L61.89689197540283,108.35236924767285L62.312307357788086,112.05235917158507L62.727722740173334,107.90316012480537L63.14313812255859,109.44662018781005L63.558553504943845,107.79301459369657L63.9739688873291,108.1527199750882L64.38938426971436,107.85663345779159L64.8047996520996,108.35250149742251L65.22021503448487,112.8300843310478L65.63563041687011,112.45973264780577L66.05104579925538,115.27065231708991L66.46646118164062,120.16980464379755L66.88187656402587,120.0044385914301L67.29729194641114,121.05403241987115L67.71270732879638,119.61356712230678L68.12812271118163,118.65083493933894L68.5435380935669,119.844152792718L68.95895347595214,118.29495684704102L69.3743688583374,117.47080616820925L69.78978424072265,122.39211913425437L70.20519962310792,120.15508550539043L70.62061500549316,113.61808274452663L71.03603038787843,115.78901572308078L71.45144577026367,114.27559843335139L71.86686115264892,114.8106265450398L72.28227653503417,117.53592236172479L72.69769191741943,117.74480466557883L73.11310729980468,121.40606967303377L73.52852268218994,121.16570069087095L73.94393806457519,118.05877260517046L74.35935344696045,118.7966800195368L74.7747688293457,121.79565300519499L75.19018421173097,122.63933861965609L75.60559959411621,124.13764383952477L76.02101497650146,124.13155218952517L76.43643035888671,117.5734232784493L76.85184574127197,119.31479776178415L77.26726112365722,116.97169276507711L77.68267650604248,119.3079085384848L78.09809188842773,120.9123109730249L78.513507270813,128.32228614760342L78.92892265319824,127.0919606058313L79.3443380355835,125.03943031719379L79.75975341796875,120.11831242939402L80.175168800354,119.202034959007L80.59058418273925,115.68881481032821L81.00599956512451,116.96420119118076L81.42141494750976,120.5986714133359L81.83683032989502,127.50470074759407L82.25224571228027,128.05432491747922L82.66766109466553,128.06142894629426L83.08307647705078,124.91955352737918L83.49849185943604,123.60253134340654L83.91390724182128,127.64096766204784L84.32932262420654,130.06190617617912L84.74473800659179,125.28732410657706L85.16015338897705,122.50269769490347L85.5755687713623,122.87716405846649L85.99098415374756,122.21749310215743L86.40639953613281,126.26143637984944L86.82181491851807,123.16877300656122L87.23723030090332,126.05667296745145L87.65264568328858,127.15590000372207L88.06806106567382,125.58225458741087L88.48347644805908,124.2630177958096L88.89889183044433,125.85802148404888L89.31430721282959,126.69481739565887L89.72972259521484,125.81282120890206L90.1451379776001,125.54227804904832L90.56055335998535,128.91419092113193L90.97596874237061,120.55995144166612L91.39138412475586,124.52600532495234L91.80679950714112,121.08142693974021L92.22221488952636,122.44589856793567L92.63763027191162,126.77642591567073L93.05304565429687,125.61389519532362L93.46846103668213,129.55306391337461L93.88387641906738,126.80663718130023L94.29929180145264,129.12006621306182L94.71470718383789,127.2006314439815L95.13012256622315,125.73394625947151L95.5455379486084,125.9688291106556L95.96095333099366,124.14921536761133L96.3763687133789,128.67975536313241L96.79178409576416,132.34616079559407L97.2071994781494,134.17028694554025L97.62261486053467,131.07317846569484L98.03803024291992,133.43172396112584L98.45344562530518,131.23694207229403L98.86886100769043,133.70824035029224L99.28427639007569,132.4692663355131L99.69969177246094,134.3520874408151L100.1151071548462,135.98311757726447L100.53052253723143,136.85142229963995L100.9459379196167,129.3900038668783L101.36135330200194,130.41551942166038L101.7767686843872,129.39040313610357L102.19218406677246,133.70923224929106L102.60759944915772,131.31641327178727L103.02301483154297,126.99551480133582L103.43843021392823,130.20446266445296L103.85384559631348,131.55378514137124L104.26926097869874,132.22473922290402L104.68467636108397,127.31585472010443L105.10009174346924,131.92385275183685L105.51550712585448,128.11079219394205L105.93092250823975,129.6165814453104L106.346337890625,134.57743452835783L106.76175327301026,134.97928179703632L107.1771686553955,129.32693767266454L107.59258403778077,126.6745698315344L108.00799942016602,127.51225747841593L108.42341480255126,131.8060488846328L108.83883018493651,133.76800262473552L109.25424556732177,135.1225655500556L109.66966094970702,130.71125361195612L110.08507633209229,132.93024989994248L110.50049171447753,132.63600559135543L110.9159070968628,129.9048508648109L111.33132247924804,131.2477183668246L111.7467378616333,134.5638522621116L112.16215324401855,132.91756768647008L112.5775686264038,135.6980137823948L112.99298400878905,140.8023083513257L113.40839939117431,139.68294683524724L113.82381477355956,141.95578879081586L114.23923015594482,130.77169707448587L114.65464553833007,132.62987951718753L115.07006092071533,129.9476785167747L115.48547630310058,134.03712177676317L115.90089168548585,138.49738453645313L116.3163070678711,133.50911489856676L116.73172245025634,134.46725704396124L117.14713783264159,131.17521663351494L117.56255321502685,131.11924368988207L117.9779685974121,126.2000053051961L118.39338397979736,132.08824693194236L118.80879936218261,133.140492629353L119.22421474456787,130.76825879770269L119.63963012695312,129.14511283448735L120.05504550933838,130.69312552067993L120.47046089172363,132.839414901398L120.88587627410888,129.54417441212343L121.30129165649413,126.79697752411495L121.71670703887939,124.26433802513245L122.13212242126464,129.1032368351401L122.5475378036499,133.3561451323343L122.96295318603515,133.29323910554407L123.37836856842041,136.21100598234096L123.79378395080566,135.13372280672232L124.20919933319092,133.97662830847793L124.62461471557617,134.03857290906907L125.04003009796142,134.4499687205209L125.45544548034667,138.04957536715818L125.87086086273193,139.22035101720135L126.28627624511718,138.24636271791098L126.70169162750244,136.91190300380407L127.11710700988769,134.4190782926238L127.53252239227295,135.55839969760916L127.9479377746582,135.6173726610153L128.36335315704346,136.6535639604859L128.7787685394287,139.36850348315278L129.19418392181396,141.98669962332843L129.6095993041992,135.53985847889993L130.02501468658446,129.34259238519994L130.44043006896973,132.55035659592335L130.85584545135498,137.51666537724333L131.27126083374023,138.18519005260018L131.68667621612548,140.3959221319791L132.10209159851075,139.45413978849587L132.517506980896,133.11664468887795L132.93292236328125,135.7333288066273L133.3483377456665,138.98289847984597L133.76375312805175,141.68415390516628L134.179168510437,135.0583755222016L134.59458389282227,135.42387784850723L135.00999927520752,135.68088652736577L135.42541465759277,134.8072844810817L135.84083003997804,134.68638414799904L136.25624542236326,132.55920579549635L136.67166080474854,137.88652862743876L137.0870761871338,136.54013578066497L137.50249156951907,136.2659866422522L137.91790695190429,138.2531443702573L138.33332233428956,137.65585464603768L138.7487377166748,141.17602277561744L139.16415309906003,138.697339870874L139.5795684814453,139.47168780528358L139.99498386383056,134.5094415649298L140.41039924621583,138.8002711511645L140.82581462860105,134.5406105761528L141.24123001098633,137.0220273070349L141.65664539337158,140.76787380022975L142.07206077575685,135.2522573093807L142.4874761581421,133.14727956314636L142.90289154052735,134.55926910361345L143.3183069229126,140.91459052231593L143.73372230529785,140.3222187536294L144.14913768768312,137.18184139898722L144.56455307006834,135.93103087917626L144.97996845245362,140.65190898408576L145.39538383483887,140.18254887504932L145.81079921722414,135.8982908893086L146.22621459960936,138.2687400202823L146.64162998199464,132.94395846619352L147.0570453643799,134.66354661133542L147.4724607467651,136.65974663551262L147.88787612915038,139.78159090289995L148.30329151153563,142.54953522666133L148.7187068939209,140.97256016623723L149.13412227630616,140.83467317883245L149.5495376586914,139.90336537171572L149.96495304107665,142.2939301478691L150.38036842346193,142.96573611361305L150.79578380584718,142.66365056347988L151.21119918823243,142.17300365310888L151.62661457061768,142.2079028406262L152.04202995300292,139.28876532006734L152.4574453353882,138.7364608698355L152.87286071777342,142.25008003251227L153.2882761001587,145.27709232296377L153.70369148254395,142.47224010135548L154.11910686492922,141.19340133131482L154.53452224731444,137.75008082834455L154.94993762969972,138.67139524035122L155.36535301208497,132.55079174734712L155.78076839447021,134.556987089849L156.19618377685546,140.3089401936165L156.6115991592407,138.23968876400218L157.027014541626,140.58903758695834L157.44242992401124,140.744522408008L157.85784530639648,142.0472195588523L158.27326068878173,144.02943633087622L158.688676071167,144.04919069600484L159.10409145355226,145.8726191799915L159.5195068359375,141.54500006563225L159.93492221832275,143.83168644156365L160.350337600708,147.02211155467663L160.76575298309328,145.9454250466528L161.1811683654785,142.3412323781024L161.59658374786378,136.25682996453392L162.01199913024902,137.85125924067964L162.4274145126343,136.21279583299506L162.84282989501952,139.6309740968195L163.2582452774048,139.89257019099728L163.67366065979004,142.4152231476714L164.0890760421753,141.4400166056351L164.50449142456054,141.12675154559193L164.9199068069458,139.5656204213244L165.33532218933107,137.91465311283116L165.75073757171631,138.79867051405333L166.16615295410156,136.7692293189533L166.5815683364868,141.13494217615704L166.9969837188721,141.8074777553983L167.41239910125734,140.58478356031011L167.82781448364256,144.57622898400876L168.24322986602783,141.24596492361243L168.65864524841308,138.64640443651194L169.07406063079836,139.8817065332727L169.48947601318358,138.31342992481063L169.90489139556885,139.7326599135157L170.3203067779541,139.7537877800976L170.73572216033938,137.75899721157447L171.1511375427246,139.01171114085784L171.56655292510987,137.97951621738835L171.98196830749512,141.00546601174403L172.39738368988037,137.5758828209162L172.81279907226562,141.641743331112L173.22821445465087,139.4294948672286L173.64362983703614,138.90431221357017L174.0590452194214,141.20897948784508L174.47446060180664,144.1457628036459L174.8898759841919,147.01492180030732L175.30529136657717,144.10390602230532L175.7207067489624,146.20068975598167L176.13612213134763,147.41193026793218L176.5515375137329,142.54398658041234L176.96695289611816,141.24318665327752L177.38236827850344,139.75635829581253L177.79778366088865,139.58761942556137L178.21319904327393,136.9648316793491L178.62861442565918,138.239220530442L179.04402980804446,138.2298370119336L179.45944519042968,142.65270408924547L179.87486057281495,147.66097390168255L180.2902759552002,146.63838506461076L180.70569133758545,144.5831031164089L181.1211067199707,145.71859360121476L181.53652210235595,145.4287709594974L181.95193748474122,143.2606614522041L182.36735286712647,141.97494982907023L182.78276824951172,142.77401854971603L183.19818363189697,146.40135623282012L183.61359901428224,143.0618585426475L184.0290143966675,141.77765382616744L184.4444297790527,142.83946615858613L184.859845161438,146.37752053357914L185.27526054382324,145.27038999116073L185.6906759262085,142.19532466601078L186.10609130859373,140.11310483706512L186.521506690979,141.34271360382243L186.93692207336426,142.0915069649166L187.35233745574953,141.4531975386844L187.76775283813475,142.9260648383225L188.18316822052003,143.443434642391L188.59858360290528,146.05601819970272L189.01399898529053,148.2546962637017L189.42941436767578,149.33276705600582L189.84482975006102,149.36859685807286L190.2602451324463,147.74592250736043L190.67566051483155,139.5826341784467L191.0910758972168,138.46167697662437L191.50649127960205,141.35777556621346L191.92190666198732,141.87861757785373L192.33732204437257,142.289737534749L192.7527374267578,144.07225343953183L193.16815280914307,141.9026509023648L193.58356819152831,141.16918948284618L193.9989835739136,146.3308997820679L194.4143989562988,142.65814821830512L194.8298143386841,140.93409910137294L195.24522972106934,142.45223095705296L195.6606451034546,139.8842029614153L196.07606048583983,144.19196751210097L196.49147586822508,146.38801066600544L196.90689125061036,150.2567774647735L197.3223066329956,146.41437011553845L197.73772201538085,149.04510373140056L198.1531373977661,144.60922048711606L198.56855278015138,144.7751368424886L198.98396816253663,144.0452617060972L199.39938354492188,146.73672351019383L199.81479892730712,152.60147783414766L200.2302143096924,147.76651742344816L200.64562969207765,146.30467307279574L201.06104507446287,146.53133527596546L201.47646045684814,141.9489022218743L201.8918758392334,143.81003264137834L202.30729122161867,141.9138660381107L202.7227066040039,140.21687078547077L203.13812198638917,141.37411213491612L203.5535373687744,140.5309632100221L203.9689527511597,140.95093146101934L204.3843681335449,143.33870856544266L204.79978351593016,140.66683031334333L205.21519889831544,141.84559625466534L205.63061428070068,142.15481783342324L206.04602966308593,139.13314961380988L206.46144504547118,143.0612016337319L206.87686042785646,143.3856979245749L207.2922758102417,141.05877775434553L207.70769119262695,142.0456071331519L208.1231065750122,141.5059745642915L208.53852195739748,145.29301526242696L208.95393733978273,144.30721220236802L209.36935272216795,145.15213317469593L209.78476810455322,145.12576385098225L210.20018348693847,146.32603889626597L210.61559886932375,146.88304390375947L211.03101425170897,146.94047686208054L211.44642963409424,144.56180579829999L211.8618450164795,146.27788251244627L212.27726039886477,144.14338990300604L212.69267578125,145.0135181168504L213.10809116363524,144.6623782415199L213.5235065460205,148.13226569222095L213.93892192840576,146.71291136055257L214.354337310791,148.34339787381407L214.76975269317626,148.53865049554275L215.18516807556153,149.26548842894374L215.60058345794678,147.56589502327543L216.01599884033203,147.40155201719298L216.43141422271728,148.98456987662723L216.84682960510253,154.46633313176554L217.2622449874878,150.86336904714705L217.67766036987302,150.90609034926524L218.0930757522583,147.31673219548665L218.50849113464355,148.74798534788223L218.92390651702883,150.0431794844158L219.33932189941405,150.92795375909972L219.75473728179932,148.63679196602448L220.17015266418457,151.82317043888295L220.58556804656985,149.48199418206073L221.00098342895507,148.43636339782248L221.41639881134031,149.30650106036484L221.8318141937256,146.90094926362087L222.24722957611084,150.94911844445565L222.6626449584961,146.19889968485296L223.07806034088134,146.27931424203518L223.4934757232666,146.1072979790704L223.90889110565186,145.8424162600484L224.3243064880371,143.53816573633884L224.73972187042236,145.60557597154954L225.1551372528076,145.0206390652647L225.57055263519288,146.75802283257826L225.9859680175781,145.2267413397463L226.40138339996338,146.80906635754053L226.81679878234863,150.20359428579425L227.2322141647339,149.922771783786L227.64762954711912,150.30610681364973L228.0630449295044,148.3766586066329L228.47846031188965,147.41636916441922L228.89387569427493,144.32943508743287L229.30929107666014,144.1791458978338L229.7247064590454,143.65867646729095L230.14012184143067,144.2729729175002L230.55553722381592,145.69719590907627L230.97095260620117,144.15212961001777L231.38636798858641,148.93874015680908L231.8017833709717,148.15409990775063L232.21719875335694,149.5988586781742L232.6326141357422,153.67415025461287L233.04802951812744,154.26319286653893L233.46344490051268,154.02501815903608L233.87886028289796,152.69539261536548L234.29427566528318,152.7279244868612L234.70969104766846,151.99828264992468L235.1251064300537,147.31267006264684L235.54052181243898,148.05464489010382L235.9559371948242,150.15365969421455L236.37135257720948,150.50151809382962L236.78676795959473,150.4832365834498L237.20218334198,148.97492211209936L237.61759872436522,149.60471866223494L238.03301410675047,149.46753133887384L238.44842948913575,149.0008440408034L238.863844871521,150.00398797827575L239.27926025390624,151.40752906154242L239.6946756362915,148.00510524842898L240.11009101867677,146.8706372799953L240.52550640106202,149.07810735065513L240.94092178344727,146.96423628756233L241.3563371658325,151.78304605698648L241.77175254821776,150.98342941768752L242.18716793060304,146.07772664678637L242.60258331298826,149.51716988983506L243.01799869537354,150.61220096100405L243.43341407775878,150.38135454106057L243.84882946014406,150.9318236255207L244.26424484252928,150.7850235435623L244.67966022491456,154.48253474128163L245.0950756072998,152.81429164780116L245.51049098968505,152.9995665703013L245.9259063720703,151.4016934719463L246.34132175445555,148.28321454199605L246.75673713684083,150.66233085731253L247.17215251922607,149.5940943279703L247.58756790161132,148.7712416780937L248.00298328399657,150.1032336857159L248.41839866638185,153.1174362178492L248.8338140487671,150.80236548625996L249.24922943115234,149.884528807707L249.6646448135376,151.02648150552562L250.08006019592284,153.70600138369215L250.49547557830812,153.68610087516078L250.91089096069334,151.17332839014654L251.3263063430786,150.12254295066768L251.74172172546386,148.170922827377L252.15713710784914,145.5504171527346L252.57255249023436,145.45507938235022L252.98796787261963,148.1566752987105L253.40338325500488,151.1813865961583L253.81879863739013,152.0159269436149L254.23421401977538,150.4771464948893L254.64962940216063,148.46537524475875L255.0650447845459,150.55630287096182L255.48046016693115,149.18634196718003L255.8958755493164,149.87428596604582L256.31129093170165,153.53282835925705L256.7267063140869,151.85309962805997L257.14212169647215,149.73152711326748L257.5575370788574,147.60477919941184L257.9729524612427,149.94115698505286L258.3883678436279,150.64609883635896L258.8037832260132,150.07264119868915L259.2191986083984,150.4745220745523L259.6346139907837,148.26604762553825L260.0500293731689,150.46374720317905L260.4654447555542,147.62612269733575L260.88086013793946,150.11805534562515L261.29627552032474,157.09291365495395" fill="none"></path></g></g></g></g><g opacity="0.2"><g><g><g><path style="fill: none;" stroke="rgb(255, 112, 67)" stroke-width="2px" d="M29.079076766967773,-0.11765719253852791L29.494492149353025,6.628011651470809L29.90990753173828,-5.289586609902613L30.325322914123532,-1.9327208782035243L30.740738296508788,2.6662325215380016L31.156153678894043,-2.502903110229309L31.571569061279295,-6.525086825590647L31.98698444366455,4.352590916001472L32.4023998260498,11.068425070664574L32.81781520843506,13.466316544214292L33.23323059082031,14.293600571814022L33.64864597320557,2.387839138889943L34.064061355590816,27.24609053889465L34.47947673797607,12.366388450641892L34.89489212036133,17.618117207129767L35.31030750274658,29.362089045732997L35.72572288513184,12.080069539379888L36.141138267517086,36.5546606562782L36.55655364990234,41.22866395962908L36.971969032287596,22.665429082744392L37.38738441467285,32.92856221786141L37.80279979705811,52.524394955437L38.218215179443355,46.30459008140824L38.63363056182861,56.00402550791087L39.049045944213866,57.430385392260604L39.46446132659912,40.708681643536366L39.879876708984376,43.723293935499726L40.295292091369625,64.57947687643964L40.71070747375488,45.48033510556078L41.126122856140135,83.04838472909746L41.54153823852539,61.13675370211223L41.95695362091064,61.35408081326939L42.372369003295894,62.8686508018026L42.78778438568115,60.38844558209198L43.203199768066405,76.38172120093704L43.61861515045166,58.96901134519524L44.03403053283691,73.84764003161347L44.449445915222164,83.33520358093992L44.86486129760742,60.534148853029485L45.280276679992674,74.10352138400567L45.69569206237793,69.0158025461813L46.11110744476318,74.294925105652L46.52652282714843,86.63751697282892L46.94193820953369,80.7401149566643L47.357353591918944,83.00018457548629L47.7727689743042,74.87419449293456L48.18818435668945,83.92894183678666L48.6035997390747,95.20877766296258L49.01901512145996,94.980613604517L49.43443050384521,94.46689524981485L49.84984588623047,98.07480467358337L50.26526126861572,94.46171939439353L50.68067665100097,95.9555124405678L51.09609203338623,90.47892805594627L51.51150741577148,105.82829491128095L51.92692279815674,98.66402876007118L52.34233818054199,85.82858370535936L52.75775356292724,105.40074278603625L53.1731689453125,87.06167244295337L53.58858432769775,96.04288440907226L54.00399971008301,94.5942624647569L54.419415092468256,110.35208077433539L54.83483047485351,110.72175742532336L55.25024585723877,107.3883447885022L55.66566123962402,102.08129907719879L56.08107662200928,105.7442901896273L56.496492004394526,96.34080488262809L56.91190738677978,112.34932868917747L57.327322769165036,104.02048036403278L57.74273815155029,106.98126081878732L58.15815353393555,92.72120567175742L58.573568916320795,115.30829318329411L58.98898429870605,107.7783572578075L59.404399681091306,104.63989203910012L59.81981506347656,105.98318826641827L60.235230445861816,116.81779024534903L60.650645828247065,104.4444740886753L61.06606121063232,105.21467666529317L61.481476593017575,110.85756481359451L61.89689197540283,108.17775096506398L62.312307357788086,117.60234405745332L62.727722740173334,101.6793615546358L63.14313812255859,111.76181028231716L63.558553504943845,105.31260620252637L63.9739688873291,108.6922780471757L64.38938426971436,107.41250368184666L64.8047996520996,109.09630355686889L65.22021503448487,119.54645858148575L65.63563041687011,111.90420512294273L66.05104579925538,119.48703182101609L66.46646118164062,127.51853313385902L66.88187656402587,119.75638951287891L67.29729194641114,122.62842316253271L67.71270732879638,117.45286917596022L68.12812271118163,117.20673666488716L68.5435380935669,121.63412957278662L68.95895347595214,115.97116292852553L69.3743688583374,116.23458014996159L69.78978424072265,129.77408858332205L70.20519962310792,116.79953506209452L70.62061500549316,103.81257860323095L71.03603038787843,119.045415190912L71.45144577026367,112.00547249875729L71.86686115264892,115.61316871257237L72.28227653503417,121.62386608675227L72.69769191741943,118.05812812135984L73.11310729980468,126.89796718421618L73.52852268218994,120.80514721762677L73.94393806457519,113.3983804766197L74.35935344696045,119.90354114108631L74.7747688293457,126.29411248368228L75.19018421173097,123.90486704134774L75.60559959411621,126.38510166932778L76.02101497650146,124.12241471452569L76.43643035888671,107.73622991183557L76.85184574127197,121.9268594867864L77.26726112365722,113.45703527001659L77.68267650604248,122.81223219859632L78.09809188842773,123.31891462483507L78.513507270813,139.43724890947115L78.92892265319824,125.24647229317313L79.3443380355835,121.96063488423755L79.75975341796875,112.73663559769435L80.175168800354,117.82761875342649L80.59058418273925,110.41898458731004L81.00599956512451,118.87728076245959L81.42141494750976,126.05037674656855L81.83683032989502,137.86374474898142L82.25224571228027,128.8787611723069L82.66766109466553,128.0720849895168L83.08307647705078,120.2067403990065L83.49849185943604,121.62699806744756L83.91390724182128,133.69862214000986L84.32932262420654,133.69331394737605L84.74473800659179,118.125451002174L85.16015338897705,118.3257580773931L85.5755687713623,123.43886360381103L85.99098415374756,121.2279866676938L86.40639953613281,132.3273512963875L86.82181491851807,118.52977794662893L87.23723030090332,130.38852290878677L87.65264568328858,128.80474055812795L88.06806106567382,123.2217864629441L88.48347644805908,122.28416260840774L88.89889183044433,128.25052701640774L89.31430721282959,127.95001126307389L89.72972259521484,124.48982692876683L90.1451379776001,125.1364633092677L90.56055335998535,133.97206022925738L90.97596874237061,108.02859222246735L91.39138412475586,130.47508614988166L91.80679950714112,115.91455936192206L92.22221488952636,124.49260601022885L92.63763027191162,133.2722169372733L93.05304565429687,123.87009911480301L93.46846103668213,135.4618169904511L93.88387641906738,122.68699708318863L94.29929180145264,132.59020976070417L94.71470718383789,124.321479290361L95.13012256622315,123.53391848270653L95.5455379486084,126.32115338743182L95.96095333099366,121.41979475304493L96.3763687133789,135.47556535641402L96.79178409576416,137.84576894428656L97.2071994781494,136.9064761704595L97.62261486053467,126.42751574592675L98.03803024291992,136.96954220427233L98.45344562530518,127.94476923904631L98.86886100769043,137.4151877672896L99.28427639007569,130.61080531334449L99.69969177246094,137.1763190987681L100.1151071548462,138.42966278193848L100.53052253723143,138.15387938320313L100.9459379196167,118.19787621773587L101.36135330200194,131.9537927538335L101.7767686843872,127.85272870776835L102.19218406677246,140.1874759190723L102.60759944915772,127.72718480553156L103.02301483154297,120.51416709565862L103.43843021392823,135.01788445912865L103.85384559631348,133.57776885674863L104.26926097869874,133.23117034520325L104.68467636108397,119.95252796590498L105.10009174346924,138.83584979943544L105.51550712585448,122.3912013570998L105.93092250823975,131.87526532236296L106.346337890625,142.01871415292896L106.76175327301026,135.5820527000541L107.1771686553955,120.84842148610684L107.59258403778077,122.69601806983916L108.00799942016602,128.76878894873826L108.42341480255126,138.24673599395805L108.83883018493651,136.71093323488958L109.25424556732177,137.1544099380357L109.66966094970702,124.09428570480691L110.08507633209229,136.25874433192203L110.50049171447753,132.19463912847482L110.9159070968628,125.80811877499413L111.33132247924804,133.2620196198452L111.7467378616333,139.53805310504205L112.16215324401855,130.4481408230078L112.5775686264038,139.86868292628185L112.99298400878905,148.458750204722L113.40839939117431,138.00390456112956L113.82381477355956,145.36505172416878L114.23923015594482,113.99555949999086L114.65464553833007,135.41715318124002L115.07006092071533,125.92437701615543L115.48547630310058,140.1712866667459L115.90089168548585,145.18777867598806L116.3163070678711,126.0267104417372L116.73172245025634,135.90447026205294L117.14713783264159,126.23715601784552L117.56255321502685,131.03528427443277L117.9779685974121,118.82114772816715L118.39338397979736,140.92060937206182L118.80879936218261,134.71886117546885L119.22421474456787,127.20990805022724L119.63963012695312,126.71039388966433L120.05504550933838,133.01514454996877L120.47046089172363,136.05884897247506L120.88587627410888,124.6013136782116L121.30129165649413,122.67618219210229L121.71670703887939,120.46537877665867L122.13212242126464,136.36158505015163L122.5475378036499,139.73550757812555L122.96295318603515,133.1988800653588L123.37836856842041,140.58765629753628L123.79378395080566,133.51779804329436L124.20919933319092,132.24098656111133L124.62461471557617,134.13148980995572L125.04003009796142,135.06706243769872L125.45544548034667,143.44898533711415L125.87086086273193,140.97651449226612L126.28627624511718,136.78538026897542L126.70169162750244,134.91021343264367L127.11710700988769,130.67984122585347L127.53252239227295,137.26738180508718L127.9479377746582,135.70583210612452L128.36335315704346,138.20785090969179L128.7787685394287,143.44091276715304L129.19418392181396,145.91399383359195L129.6095993041992,125.86959676225719L130.02501468658446,120.04669324464993L130.44043006896973,137.36200291200845L130.85584545135498,144.9661285492233L131.27126083374023,139.18797706563547L131.68667621612548,143.71202025104748L132.10209159851075,138.04146627327103L132.517506980896,123.61040203945103L132.93292236328125,139.6583549832513L133.3483377456665,143.85725298967395L133.76375312805175,145.73603704314678L134.179168510437,125.11970794775459L134.59458389282227,135.97213133796564L135.00999927520752,136.06639954565364L135.42541465759277,133.4968814116556L135.84083003997804,134.505033648375L136.25624542236326,129.36843826674234L136.67166080474854,145.87751287535235L137.0870761871338,134.5205465105043L137.50249156951907,135.854762934633L137.91790695190429,141.23388096226503L138.33332233428956,136.7599200597083L138.7487377166748,146.4562749699871L139.16415309906003,134.97931551375888L139.5795684814453,140.63320970689793L139.99498386383056,127.06607220439915L140.41039924621583,145.23651553051653L140.82581462860105,128.15111971363524L141.24123001098633,140.74415240335804L141.65664539337158,146.38664354002196L142.07206077575685,126.97883257310717L142.4874761581421,129.9898129437948L142.90289154052735,136.67725341431412L143.3183069229126,150.4475726503697L143.73372230529785,139.43366110059958L144.14913768768312,132.4712753670239L144.56455307006834,134.0548150994599L144.97996845245362,147.73322614145L145.39538383483887,139.47850871149464L145.81079921722414,129.47190391069753L146.22621459960936,141.82441371674287L146.64162998199464,124.95678613506033L147.0570453643799,137.2429288290483L147.4724607467651,139.65404667177842L147.88787612915038,144.4643573039809L148.30329151153563,146.70145171230337L148.7187068939209,138.60709757560107L149.13412227630616,140.62784269772524L149.5495376586914,138.50640366104057L149.96495304107665,145.8797773120992L150.38036842346193,143.97344506222902L150.79578380584718,142.21052223828008L151.21119918823243,141.43703328755237L151.62661457061768,142.26025162190214L152.04202995300292,134.9100590392291L152.4574453353882,137.9080041944877L152.87286071777342,147.52050877652744L153.2882761001587,149.81761075864097L153.70369148254395,138.26496176894312L154.11910686492922,139.27514317625383L154.53452224731444,132.5851000738891L154.94993762969972,140.0533668583613L155.36535301208497,123.36988650784092L155.78076839447021,137.56628010360185L156.19618377685546,148.9368698492678L156.6115991592407,135.13581161958066L157.027014541626,144.11306082139257L157.44242992401124,140.97774963958256L157.85784530639648,144.0012652851187L158.27326068878173,147.00276148891209L158.688676071167,144.07882224369777L159.10409145355226,148.60776190597144L159.5195068359375,135.05357139409338L159.93492221832275,147.26171600546073L160.350337600708,151.80774922434605L160.76575298309328,144.3303952846171L161.1811683654785,136.93494337527687L161.59658374786378,127.1302263441812L162.01199913024902,140.24290315489824L162.4274145126343,133.7551007214682L162.84282989501952,144.7582414925562L163.2582452774048,140.2849643322639L163.67366065979004,146.1992025826826L164.0890760421753,139.97720679258063L164.50449142456054,140.65685395552723L164.9199068069458,137.2239237349231L165.33532218933107,135.43820215009129L165.75073757171631,140.12469661588656L166.16615295410156,133.72506752630326L166.5815683364868,147.68351146196267L166.9969837188721,142.8162811242602L167.41239910125734,138.75074226767782L167.82781448364256,150.56339711955678L168.24322986602783,136.25056883301787L168.65864524841308,134.74706370586122L169.07406063079836,141.7346596784138L169.48947601318358,135.96101501211754L169.90489139556885,141.8615048965733L170.3203067779541,139.78547957997046L170.73572216033938,134.7668113587898L171.1511375427246,140.8907820347829L171.56655292510987,136.4312238321841L171.98196830749512,145.5443907032776L172.39738368988037,132.4315080346745L172.81279907226562,147.74053409640567L173.22821445465087,136.1111221714036L173.64362983703614,138.11653823308245L174.0590452194214,144.66598039925745L174.47446060180664,148.5509377773472L174.8898759841919,151.31866029529945L175.30529136657717,139.73738235530232L175.7207067489624,149.3458653564962L176.13612213134763,149.228791035858L176.5515375137329,135.24207104913256L176.96695289611816,139.29198676257525L177.38236827850344,137.526115759615L177.79778366088865,139.33451112018463L178.21319904327393,133.03065006003072L178.62861442565918,140.1508038070814L179.04402980804446,138.21576173417102L179.45944519042968,149.28700470521326L179.87486057281495,155.17337862033813L180.2902759552002,145.10450180900307L180.70569133758545,141.50018019410612L181.1211067199707,147.4218293284235L181.53652210235595,144.9940369969213L181.95193748474122,140.00849719126413L182.36735286712647,140.04638239436946L182.78276824951172,143.97262163068476L183.19818363189697,151.84236275747625L183.61359901428224,138.05261200738857L184.0290143966675,139.85134675144732L184.4444297790527,144.4321846572142L184.859845161438,151.68460209606857L185.27526054382324,143.60969417753313L185.6906759262085,137.58272667828587L186.10609130859373,136.9897750936466L186.521506690979,143.18712675395838L186.93692207336426,143.2146970065578L187.35233745574953,140.4957333993361L187.76775283813475,145.13536578777968L188.18316822052003,144.21948934849377L188.59858360290528,149.97489353567025L189.01399898529053,151.55271335970025L189.42941436767578,150.949873244462L189.84482975006102,149.4223415611734L190.2602451324463,145.31191098129176L190.67566051483155,127.33770168507617L191.0910758972168,136.7802411738909L191.50649127960205,145.70192345059706L191.92190666198732,142.65988059531412L192.33732204437257,142.90641747009195L192.7527374267578,146.74602729670613L193.16815280914307,138.64824709661417L193.58356819152831,140.06899735356834L193.9989835739136,154.07346523090044L194.4143989562988,137.14902087266094L194.8298143386841,138.3480254259747L195.24522972106934,144.72942874057293L195.6606451034546,136.03216096795882L196.07606048583983,150.6536143381295L196.49147586822508,149.68207539686213L196.90689125061036,156.0599276629256L197.3223066329956,140.6507590916859L197.73772201538085,152.99120415519374L198.1531373977661,137.95539562068927L198.56855278015138,145.0240113755474L198.98396816253663,142.95044900151012L199.39938354492188,150.7739162163387L199.81479892730712,161.3986093200784L200.2302143096924,140.5140768073989L200.64562969207765,144.1119065468171L201.06104507446287,146.87132858072005L201.47646045684814,135.07525264073757L201.8918758392334,146.60172827063437L202.30729122161867,139.06961613320922L202.7227066040039,137.6713779065109L203.13812198638917,143.10997415908412L203.5535373687744,139.26623982268106L203.9689527511597,141.5808838375152L204.3843681335449,146.92037422207764L204.79978351593016,136.65901293519434L205.21519889831544,143.61374516664839L205.63061428070068,142.61865020156006L206.04602966308593,134.60064728438982L206.46144504547118,148.95327966361498L206.87686042785646,143.87244236083944L207.2922758102417,137.5683974990015L207.70769119262695,143.5258512013614L208.1231065750122,140.69652571100096L208.53852195739748,150.97357630963015L208.95393733978273,142.82850761227965L209.36935272216795,146.41951463318787L209.78476810455322,145.08620986541172L210.20018348693847,148.12645146419152L210.61559886932375,147.7185514149997L211.03101425170897,147.02662629956217L211.44642963409424,140.9937992026291L211.8618450164795,148.85199758366565L212.27726039886477,140.9416509888457L212.69267578125,146.31871043761697L213.10809116363524,144.13566842852413L213.5235065460205,153.33709686827257L213.93892192840576,144.58387986305L214.354337310791,150.78912764370625L214.76975269317626,148.83152942813587L215.18516807556153,150.35574532904516L215.60058345794678,145.016504914773L216.01599884033203,147.15503750806928L216.43141422271728,151.35909666577862L216.84682960510253,162.688978014473L217.2622449874878,145.45892292021932L217.67766036987302,150.97017230244253L218.0930757522583,141.93269496481872L218.50849113464355,150.8948650764756L218.92390651702883,151.9859706892162L219.33932189941405,152.25511517112557L219.75473728179932,145.20004927641168L220.17015266418457,156.60273814817066L220.58556804656985,145.97022979682745L221.00098342895507,146.8679172214651L221.41639881134031,150.61170755417834L221.8318141937256,143.29262156850487L222.24722957611084,157.02137221570786L222.6626449584961,139.07357154544886L223.07806034088134,146.39993607780858L223.4934757232666,145.8492735846232L223.90889110565186,145.44509368151543L224.3243064880371,140.08178995077446L224.73972187042236,148.70669132436558L225.1551372528076,144.1432337058374L225.57055263519288,149.36409848354864L225.9859680175781,142.92981910049838L226.40138339996338,149.18255388423188L226.81679878234863,155.2953861781748L227.2322141647339,149.5015380307737L227.64762954711912,150.88110935844531L228.0630449295044,145.48248629610762L228.47846031188965,145.97593500109866L228.89387569427493,139.69903397195336L229.30929107666014,143.9537121134352L229.7247064590454,142.8779723214767L230.14012184143067,145.194417592814L230.55553722381592,147.83353039644038L230.97095260620117,141.83453016143002L231.38636798858641,156.11865597699605L231.8017833709717,146.97713953416303L232.21719875335694,151.76599683380948L232.6326141357422,159.78708761927086L233.04802951812744,155.1467567844281L233.46344490051268,153.66775609778185L233.87886028289796,150.70095429985957L234.29427566528318,152.77672229410481L234.70969104766846,150.9038198945199L235.1251064300537,140.28425118173L235.54052181243898,149.1676071312893L235.9559371948242,153.30218190038065L236.37135257720948,151.02330569325218L236.78676795959473,150.45581431788008L237.20218334198,146.7124504050737L237.61759872436522,150.54941348743833L238.03301410675047,149.26175035383218L238.44842948913575,148.3008130936977L238.863844871521,151.5087038844842L239.27926025390624,153.51284068644242L239.6946756362915,142.90146952875878L240.11009101867677,145.16893532734477L240.52550640106202,152.38931245664492L240.94092178344727,143.7934296929231L241.3563371658325,159.0112607111227L241.77175254821776,149.7840044587391L242.18716793060304,138.71917249043466L242.60258331298826,154.67633475440812L243.01799869537354,152.2547475677576L243.43341407775878,150.03508491114533L243.84882946014406,151.75752725221093L244.26424484252928,150.56482342062458L244.67966022491456,160.02880153786063L245.0950756072998,150.31192700758046L245.51049098968505,153.27747895405156L245.9259063720703,149.00488382441375L246.34132175445555,143.60549614707065L246.75673713684083,154.2310053302873L247.17215251922607,147.991739533957L247.58756790161132,147.53696270327876L248.00298328399657,152.10122169714919L248.41839866638185,157.63874001604916L248.8338140487671,147.32975938887614L249.24922943115234,148.5077737898775L249.6646448135376,152.73941055225362L250.08006019592284,157.72528120094196L250.49547557830812,153.65625011236367L250.91089096069334,147.40416966262518L251.3263063430786,148.54636479144935L251.74172172546386,145.243492642441L252.15713710784914,141.61965864077104L252.57255249023436,145.3120727267737L252.98796787261963,152.20906917325084L253.40338325500488,155.71845354233002L253.81879863739013,153.26773746479978L254.23421401977538,148.16897582180093L254.64962940216063,145.44771836956292L255.0650447845459,153.69269431026643L255.48046016693115,147.1314006115074L255.8958755493164,150.9062019643445L256.31129093170165,159.02064194907388L256.7267063140869,149.3335065312643L257.14212169647215,146.54916834107883L257.5575370788574,144.41465732862832L257.9729524612427,153.44572366351437L258.3883678436279,151.70351161331814L258.8037832260132,149.2124547421844L259.2191986083984,151.0773433883471L259.6346139907837,144.95333595201717L260.0500293731689,153.76029656964027L260.4654447555542,143.3696859385708L260.88086013793946,153.85595431805925L261.29627552032474,167.55520111894717" fill="none"></path></g></g></g></g></g></g><g transform="translate(59, 177)" clip-path="url(#clip_1)"><clipPath id="clip_1"><rect width="270" height="22"></rect></clipPath><g><g><line x1="0" y1="0" x2="0" y2="5" style="visibility: inherit;" fill="rgb(0, 0, 0)" stroke="rgb(204, 204, 204)" stroke-width="1px"></line><line x1="20.770769119262695" y1="0" x2="20.770769119262695" y2="5" style="visibility: inherit;" fill="rgb(0, 0, 0)" stroke="rgb(204, 204, 204)" stroke-width="1px"></line><line x1="41.54153823852539" y1="0" x2="41.54153823852539" y2="5" style="visibility: inherit;" fill="rgb(0, 0, 0)" stroke="rgb(204, 204, 204)" stroke-width="1px"></line><line x1="62.312307357788086" y1="0" x2="62.312307357788086" y2="5" style="visibility: inherit;" fill="rgb(0, 0, 0)" stroke="rgb(204, 204, 204)" stroke-width="1px"></line><line x1="83.08307647705078" y1="0" x2="83.08307647705078" y2="5" style="visibility: inherit;" fill="rgb(0, 0, 0)" stroke="rgb(204, 204, 204)" stroke-width="1px"></line><line x1="103.85384559631348" y1="0" x2="103.85384559631348" y2="5" style="visibility: inherit;" fill="rgb(0, 0, 0)" stroke="rgb(204, 204, 204)" stroke-width="1px"></line><line x1="124.62461471557617" y1="0" x2="124.62461471557617" y2="5" style="visibility: inherit;" fill="rgb(0, 0, 0)" stroke="rgb(204, 204, 204)" stroke-width="1px"></line><line x1="145.39538383483887" y1="0" x2="145.39538383483887" y2="5" style="visibility: inherit;" fill="rgb(0, 0, 0)" stroke="rgb(204, 204, 204)" stroke-width="1px"></line><line x1="166.16615295410156" y1="0" x2="166.16615295410156" y2="5" style="visibility: inherit;" fill="rgb(0, 0, 0)" stroke="rgb(204, 204, 204)" stroke-width="1px"></line><line x1="186.93692207336426" y1="0" x2="186.93692207336426" y2="5" style="visibility: inherit;" fill="rgb(0, 0, 0)" stroke="rgb(204, 204, 204)" stroke-width="1px"></line><line x1="207.70769119262695" y1="0" x2="207.70769119262695" y2="5" style="visibility: inherit;" fill="rgb(0, 0, 0)" stroke="rgb(204, 204, 204)" stroke-width="1px"></line><line x1="228.47846031188965" y1="0" x2="228.47846031188965" y2="5" style="visibility: inherit;" fill="rgb(0, 0, 0)" stroke="rgb(204, 204, 204)" stroke-width="1px"></line><line x1="249.24922943115234" y1="0" x2="249.24922943115234" y2="5" style="visibility: inherit;" fill="rgb(0, 0, 0)" stroke="rgb(204, 204, 204)" stroke-width="1px"></line><line x1="270.01999855041504" y1="0" x2="270.01999855041504" y2="5" style="visibility: inherit;" fill="rgb(0, 0, 0)" stroke="rgb(204, 204, 204)" stroke-width="1px"></line></g><g transform="translate(0, 8)"><text style="text-anchor: middle; visibility: hidden; font-family: Roboto, sans-serif; font-size: 12px; font-weight: 200;" x="0" y="0" dx="0em" dy="0.95em" fill="rgb(33, 33, 33)" stroke="none" stroke-width="1px">-50</text><text style="text-anchor: middle; visibility: inherit; font-family: Roboto, sans-serif; font-size: 12px; font-weight: 200;" x="20.770769119262695" y="0" dx="0em" dy="0.95em" fill="rgb(33, 33, 33)" stroke="none" stroke-width="1px">0</text><text style="text-anchor: middle; visibility: hidden; font-family: Roboto, sans-serif; font-size: 12px; font-weight: 200;" x="41.54153823852539" y="0" dx="0em" dy="0.95em" fill="rgb(33, 33, 33)" stroke="none" stroke-width="1px">50</text><text style="text-anchor: middle; visibility: inherit; font-family: Roboto, sans-serif; font-size: 12px; font-weight: 200;" x="62.312307357788086" y="0" dx="0em" dy="0.95em" fill="rgb(33, 33, 33)" stroke="none" stroke-width="1px">100</text><text style="text-anchor: middle; visibility: hidden; font-family: Roboto, sans-serif; font-size: 12px; font-weight: 200;" x="83.08307647705078" y="0" dx="0em" dy="0.95em" fill="rgb(33, 33, 33)" stroke="none" stroke-width="1px">150</text><text style="text-anchor: middle; visibility: inherit; font-family: Roboto, sans-serif; font-size: 12px; font-weight: 200;" x="103.85384559631348" y="0" dx="0em" dy="0.95em" fill="rgb(33, 33, 33)" stroke="none" stroke-width="1px">200</text><text style="text-anchor: middle; visibility: hidden; font-family: Roboto, sans-serif; font-size: 12px; font-weight: 200;" x="124.62461471557617" y="0" dx="0em" dy="0.95em" fill="rgb(33, 33, 33)" stroke="none" stroke-width="1px">250</text><text style="text-anchor: middle; visibility: inherit; font-family: Roboto, sans-serif; font-size: 12px; font-weight: 200;" x="145.39538383483887" y="0" dx="0em" dy="0.95em" fill="rgb(33, 33, 33)" stroke="none" stroke-width="1px">300</text><text style="text-anchor: middle; visibility: hidden; font-family: Roboto, sans-serif; font-size: 12px; font-weight: 200;" x="166.16615295410156" y="0" dx="0em" dy="0.95em" fill="rgb(33, 33, 33)" stroke="none" stroke-width="1px">350</text><text style="text-anchor: middle; visibility: inherit; font-family: Roboto, sans-serif; font-size: 12px; font-weight: 200;" x="186.93692207336426" y="0" dx="0em" dy="0.95em" fill="rgb(33, 33, 33)" stroke="none" stroke-width="1px">400</text><text style="text-anchor: middle; visibility: hidden; font-family: Roboto, sans-serif; font-size: 12px; font-weight: 200;" x="207.70769119262695" y="0" dx="0em" dy="0.95em" fill="rgb(33, 33, 33)" stroke="none" stroke-width="1px">450</text><text style="text-anchor: middle; visibility: inherit; font-family: Roboto, sans-serif; font-size: 12px; font-weight: 200;" x="228.47846031188965" y="0" dx="0em" dy="0.95em" fill="rgb(33, 33, 33)" stroke="none" stroke-width="1px">500</text><text style="text-anchor: middle; visibility: hidden; font-family: Roboto, sans-serif; font-size: 12px; font-weight: 200;" x="249.24922943115234" y="0" dx="0em" dy="0.95em" fill="rgb(33, 33, 33)" stroke="none" stroke-width="1px">550</text><text style="text-anchor: middle; visibility: hidden; font-family: Roboto, sans-serif; font-size: 12px; font-weight: 200;" x="270.01999855041504" y="0" dx="0em" dy="0.95em" fill="rgb(33, 33, 33)" stroke="none" stroke-width="1px">600</text></g><line x1="0" y1="0" x2="270.01999855041504" y2="0" fill="rgb(0, 0, 0)" stroke="rgb(204, 204, 204)" stroke-width="1px"></line></g></g></g></g></svg>