<svg viewBox="0 0 590 400" xmlns="http://www.w3.org/2000/svg"><g><g><g><g><g><line x1="61.91500186920166" y1="376.5999994277954" x2="56.91500186920166" y2="376.5999994277954" style="visibility: inherit;" fill="rgb(0, 0, 0)" stroke="rgb(204, 204, 204)" stroke-width="1px"></line><line x1="61.91500186920166" y1="347.6307687025804" x2="56.91500186920166" y2="347.6307687025804" style="visibility: inherit;" fill="rgb(0, 0, 0)" stroke="rgb(204, 204, 204)" stroke-width="1px"></line><line x1="61.91500186920166" y1="318.6615379773653" x2="56.91500186920166" y2="318.6615379773653" style="visibility: inherit;" fill="rgb(0, 0, 0)" stroke="rgb(204, 204, 204)" stroke-width="1px"></line><line x1="61.91500186920166" y1="289.69230725215033" x2="56.91500186920166" y2="289.69230725215033" style="visibility: inherit;" fill="rgb(0, 0, 0)" stroke="rgb(204, 204, 204)" stroke-width="1px"></line><line x1="61.91500186920166" y1="260.7230765269353" x2="56.91500186920166" y2="260.7230765269353" style="visibility: inherit;" fill="rgb(0, 0, 0)" stroke="rgb(204, 204, 204)" stroke-width="1px"></line><line x1="61.91500186920166" y1="231.75384580172027" x2="56.91500186920166" y2="231.75384580172027" style="visibility: inherit;" fill="rgb(0, 0, 0)" stroke="rgb(204, 204, 204)" stroke-width="1px"></line><line x1="61.91500186920166" y1="202.78461507650516" x2="56.91500186920166" y2="202.78461507650516" style="visibility: inherit;" fill="rgb(0, 0, 0)" stroke="rgb(204, 204, 204)" stroke-width="1px"></line><line x1="61.91500186920166" y1="173.81538435129025" x2="56.91500186920166" y2="173.81538435129025" style="visibility: inherit;" fill="rgb(0, 0, 0)" stroke="rgb(204, 204, 204)" stroke-width="1px"></line><line x1="61.91500186920166" y1="144.8461536260752" x2="56.91500186920166" y2="144.8461536260752" style="visibility: inherit;" fill="rgb(0, 0, 0)" stroke="rgb(204, 204, 204)" stroke-width="1px"></line><line x1="61.91500186920166" y1="115.87692290086014" x2="56.91500186920166" y2="115.87692290086014" style="visibility: inherit;" fill="rgb(0, 0, 0)" stroke="rgb(204, 204, 204)" stroke-width="1px"></line><line x1="61.91500186920166" y1="86.90769217564508" x2="56.91500186920166" y2="86.90769217564508" style="visibility: inherit;" fill="rgb(0, 0, 0)" stroke="rgb(204, 204, 204)" stroke-width="1px"></line><line x1="61.91500186920166" y1="57.93846145043011" x2="56.91500186920166" y2="57.93846145043011" style="visibility: inherit;" fill="rgb(0, 0, 0)" stroke="rgb(204, 204, 204)" stroke-width="1px"></line><line x1="61.91500186920166" y1="28.969230725215056" x2="56.91500186920166" y2="28.969230725215056" style="visibility: inherit;" fill="rgb(0, 0, 0)" stroke="rgb(204, 204, 204)" stroke-width="1px"></line><line x1="61.91500186920166" y1="0" x2="56.91500186920166" y2="0" style="visibility: inherit;" fill="rgb(0, 0, 0)" stroke="rgb(204, 204, 204)" stroke-width="1px"></line></g><g transform="translate(51.91500186920166, 0)"><text style="text-anchor: end; visibility: hidden; font-family: Roboto, sans-serif; font-size: 12px; font-weight: 200;" x="0" y="376.5999994277954" dx="0em" dy="0.3em" fill="rgb(33, 33, 33)" stroke="none" stroke-width="1px">0.03</text><text style="text-anchor: end; visibility: inherit; font-family: Roboto, sans-serif; font-size: 12px; font-weight: 200;" x="0" y="347.6307687025804" dx="0em" dy="0.3em" fill="rgb(33, 33, 33)" stroke="none" stroke-width="1px">0.032</text><text style="text-anchor: end; visibility: inherit; font-family: Roboto, sans-serif; font-size: 12px; font-weight: 200;" x="0" y="318.6615379773653" dx="0em" dy="0.3em" fill="rgb(33, 33, 33)" stroke="none" stroke-width="1px">0.034</text><text style="text-anchor: end; visibility: inherit; font-family: Roboto, sans-serif; font-size: 12px; font-weight: 200;" x="0" y="289.69230725215033" dx="0em" dy="0.3em" fill="rgb(33, 33, 33)" stroke="none" stroke-width="1px">0.036</text><text style="text-anchor: end; visibility: inherit; font-family: Roboto, sans-serif; font-size: 12px; font-weight: 200;" x="0" y="260.7230765269353" dx="0em" dy="0.3em" fill="rgb(33, 33, 33)" stroke="none" stroke-width="1px">0.038</text><text style="text-anchor: end; visibility: inherit; font-family: Roboto, sans-serif; font-size: 12px; font-weight: 200;" x="0" y="231.75384580172027" dx="0em" dy="0.3em" fill="rgb(33, 33, 33)" stroke="none" stroke-width="1px">0.04</text><text style="text-anchor: end; visibility: inherit; font-family: Roboto, sans-serif; font-size: 12px; font-weight: 200;" x="0" y="202.78461507650516" dx="0em" dy="0.3em" fill="rgb(33, 33, 33)" stroke="none" stroke-width="1px">0.042</text><text style="text-anchor: end; visibility: inherit; font-family: Roboto, sans-serif; font-size: 12px; font-weight: 200;" x="0" y="173.81538435129025" dx="0em" dy="0.3em" fill="rgb(33, 33, 33)" stroke="none" stroke-width="1px">0.044</text><text style="text-anchor: end; visibility: inherit; font-family: Roboto, sans-serif; font-size: 12px; font-weight: 200;" x="0" y="144.8461536260752" dx="0em" dy="0.3em" fill="rgb(33, 33, 33)" stroke="none" stroke-width="1px">0.046</text><text style="text-anchor: end; visibility: inherit; font-family: Roboto, sans-serif; font-size: 12px; font-weight: 200;" x="0" y="115.87692290086014" dx="0em" dy="0.3em" fill="rgb(33, 33, 33)" stroke="none" stroke-width="1px">0.048</text><text style="text-anchor: end; visibility: inherit; font-family: Roboto, sans-serif; font-size: 12px; font-weight: 200;" x="0" y="86.90769217564508" dx="0em" dy="0.3em" fill="rgb(33, 33, 33)" stroke="none" stroke-width="1px">0.05</text><text style="text-anchor: end; visibility: inherit; font-family: Roboto, sans-serif; font-size: 12px; font-weight: 200;" x="0" y="57.93846145043011" dx="0em" dy="0.3em" fill="rgb(33, 33, 33)" stroke="none" stroke-width="1px">0.052</text><text style="text-anchor: end; visibility: inherit; font-family: Roboto, sans-serif; font-size: 12px; font-weight: 200;" x="0" y="28.969230725215056" dx="0em" dy="0.3em" fill="rgb(33, 33, 33)" stroke="none" stroke-width="1px">0.054</text><text style="text-anchor: end; visibility: hidden; font-family: Roboto, sans-serif; font-size: 12px; font-weight: 200;" x="0" y="0" dx="0em" dy="0.3em" fill="rgb(33, 33, 33)" stroke="none" stroke-width="1px">0.056</text></g><line x1="61.91500186920166" y1="0" x2="61.91500186920166" y2="376.5999994277954" fill="rgb(0, 0, 0)" stroke="rgb(204, 204, 204)" stroke-width="1px"></line></g></g><g transform="translate(61, 0)" clip-path="url(#clip_0)"><clipPath id="clip_0"><rect width="528" height="376"></rect></clipPath><g><g><g><line x1="0" y1="0" x2="0" y2="376.5999994277954" fill="rgb(0, 0, 0)" stroke="rgb(66, 66, 66)" stroke-width="1px" opacity="0.25"></line><line x1="40.621922933138336" y1="0" x2="40.621922933138336" y2="376.5999994277954" fill="rgb(0, 0, 0)" stroke="rgb(66, 66, 66)" stroke-width="1px" opacity="0.25"></line><line x1="81.24384586627667" y1="0" x2="81.24384586627667" y2="376.5999994277954" fill="rgb(0, 0, 0)" stroke="rgb(66, 66, 66)" stroke-width="1px" opacity="0.25"></line><line x1="121.86576879941501" y1="0" x2="121.86576879941501" y2="376.5999994277954" fill="rgb(0, 0, 0)" stroke="rgb(66, 66, 66)" stroke-width="1px" opacity="0.25"></line><line x1="162.48769173255334" y1="0" x2="162.48769173255334" y2="376.5999994277954" fill="rgb(0, 0, 0)" stroke="rgb(66, 66, 66)" stroke-width="1px" opacity="0.25"></line><line x1="203.10961466569168" y1="0" x2="203.10961466569168" y2="376.5999994277954" fill="rgb(0, 0, 0)" stroke="rgb(66, 66, 66)" stroke-width="1px" opacity="0.25"></line><line x1="243.73153759883002" y1="0" x2="243.73153759883002" y2="376.5999994277954" fill="rgb(0, 0, 0)" stroke="rgb(66, 66, 66)" stroke-width="1px" opacity="0.25"></line><line x1="284.3534605319683" y1="0" x2="284.3534605319683" y2="376.5999994277954" fill="rgb(0, 0, 0)" stroke="rgb(66, 66, 66)" stroke-width="1px" opacity="0.25"></line><line x1="324.9753834651067" y1="0" x2="324.9753834651067" y2="376.5999994277954" fill="rgb(0, 0, 0)" stroke="rgb(66, 66, 66)" stroke-width="1px" opacity="0.25"></line><line x1="365.597306398245" y1="0" x2="365.597306398245" y2="376.5999994277954" fill="rgb(0, 0, 0)" stroke="rgb(66, 66, 66)" stroke-width="1px" opacity="0.25"></line><line x1="406.21922933138336" y1="0" x2="406.21922933138336" y2="376.5999994277954" fill="rgb(0, 0, 0)" stroke="rgb(66, 66, 66)" stroke-width="1px" opacity="0.25"></line><line x1="446.84115226452167" y1="0" x2="446.84115226452167" y2="376.5999994277954" fill="rgb(0, 0, 0)" stroke="rgb(66, 66, 66)" stroke-width="1px" opacity="0.25"></line><line x1="487.46307519766003" y1="0" x2="487.46307519766003" y2="376.5999994277954" fill="rgb(0, 0, 0)" stroke="rgb(66, 66, 66)" stroke-width="1px" opacity="0.25"></line><line x1="528.0849981307983" y1="0" x2="528.0849981307983" y2="376.5999994277954" fill="rgb(0, 0, 0)" stroke="rgb(66, 66, 66)" stroke-width="1px" opacity="0.25"></line></g><g><line x1="0" y1="376.5999994277954" x2="528.0849981307983" y2="376.5999994277954" fill="rgb(0, 0, 0)" stroke="rgb(66, 66, 66)" stroke-width="1px" opacity="0.25"></line><line x1="0" y1="347.6307687025804" x2="528.0849981307983" y2="347.6307687025804" fill="rgb(0, 0, 0)" stroke="rgb(66, 66, 66)" stroke-width="1px" opacity="0.25"></line><line x1="0" y1="318.6615379773653" x2="528.0849981307983" y2="318.6615379773653" fill="rgb(0, 0, 0)" stroke="rgb(66, 66, 66)" stroke-width="1px" opacity="0.25"></line><line x1="0" y1="289.69230725215033" x2="528.0849981307983" y2="289.69230725215033" fill="rgb(0, 0, 0)" stroke="rgb(66, 66, 66)" stroke-width="1px" opacity="0.25"></line><line x1="0" y1="260.7230765269353" x2="528.0849981307983" y2="260.7230765269353" fill="rgb(0, 0, 0)" stroke="rgb(66, 66, 66)" stroke-width="1px" opacity="0.25"></line><line x1="0" y1="231.75384580172027" x2="528.0849981307983" y2="231.75384580172027" fill="rgb(0, 0, 0)" stroke="rgb(66, 66, 66)" stroke-width="1px" opacity="0.25"></line><line x1="0" y1="202.78461507650516" x2="528.0849981307983" y2="202.78461507650516" fill="rgb(0, 0, 0)" stroke="rgb(66, 66, 66)" stroke-width="1px" opacity="0.25"></line><line x1="0" y1="173.81538435129025" x2="528.0849981307983" y2="173.81538435129025" fill="rgb(0, 0, 0)" stroke="rgb(66, 66, 66)" stroke-width="1px" opacity="0.25"></line><line x1="0" y1="144.8461536260752" x2="528.0849981307983" y2="144.8461536260752" fill="rgb(0, 0, 0)" stroke="rgb(66, 66, 66)" stroke-width="1px" opacity="0.25"></line><line x1="0" y1="115.87692290086014" x2="528.0849981307983" y2="115.87692290086014" fill="rgb(0, 0, 0)" stroke="rgb(66, 66, 66)" stroke-width="1px" opacity="0.25"></line><line x1="0" y1="86.90769217564508" x2="528.0849981307983" y2="86.90769217564508" fill="rgb(0, 0, 0)" stroke="rgb(66, 66, 66)" stroke-width="1px" opacity="0.25"></line><line x1="0" y1="57.93846145043011" x2="528.0849981307983" y2="57.93846145043011" fill="rgb(0, 0, 0)" stroke="rgb(66, 66, 66)" stroke-width="1px" opacity="0.25"></line><line x1="0" y1="28.969230725215056" x2="528.0849981307983" y2="28.969230725215056" fill="rgb(0, 0, 0)" stroke="rgb(66, 66, 66)" stroke-width="1px" opacity="0.25"></line><line x1="0" y1="0" x2="528.0849981307983" y2="0" fill="rgb(0, 0, 0)" stroke="rgb(66, 66, 66)" stroke-width="1px" opacity="0.25"></line></g></g></g><g><g><line x1="0" y1="811.1384603060209" x2="528.0849981307983" y2="811.1384603060209" fill="rgb(0, 0, 0)" stroke="rgb(153, 153, 153)" stroke-width="1.5px"></line></g></g><g><g><line x1="40.621922933138336" y1="0" x2="40.621922933138336" y2="376.5999994277954" fill="rgb(0, 0, 0)" stroke="rgb(153, 153, 153)" stroke-width="1.5px"></line></g></g><g><g><g><g><g><path style="fill: none;" stroke="rgb(255, 112, 67)" stroke-width="2px" d="M40.621922933138336,-18.97193321545759L41.4343613918011,37.605944789346125L42.246799850463866,6.412488789659924L43.05923830912663,30.054227976914017L43.8716767677894,26.677645760586376L44.68411522645217,46.33105287630162L45.49655368511493,21.318649211848257L46.3089921437777,13.426990175163263L47.12143060244046,12.075009737998647L47.93386906110323,10.701206011529234L48.746307519766006,10.850371575805788L49.55874597842877,6.401459163613743L50.371184437091536,13.761221890983906L51.1836228957543,9.341987987168498L51.996061354417066,2.336676364795935L52.808499813079834,5.184100971595908L53.6209382717426,12.781001422494587L54.43337673040537,30.681976510243576L55.24581518906813,39.369240203801816L56.0582536477309,47.42178612957377L56.87069210639367,44.93628633946722L57.68313056505643,67.04171154005094L58.495569023719206,42.359110391836566L59.30800748238197,52.238136561426536L60.120445941044736,47.04558130577526L60.932884399707504,54.010683024968934L61.745322858370265,45.62270951121071L62.557761317033034,58.5911205764895L63.370199775695795,74.07044421893579L64.18263823435856,64.85261226452491L64.99507669302133,47.99421666299827L65.8075151516841,44.85049797038395L66.61995361034687,66.12612338309016L67.43239206900964,71.11031527623207L68.2448305276724,70.72815210720144L69.05726898633517,78.11416558322105L69.86970744499794,49.052722381792556L70.6821459036607,58.953198105080446L71.49458436232347,77.10589804790804L72.30702282098623,56.18046737147278L73.119461279649,45.578301738292396L73.93189973831177,62.97400830349675L74.74433819697452,56.21414070540523L75.5567766556373,70.98031545928457L76.36921511430008,66.1635794416069L77.18165357296284,61.37464189642466L77.99409203162561,38.671611030609185L78.80653049028837,51.38968369274868L79.61896894895114,40.14235737591814L80.4314074076139,73.95435544263627L81.24384586627667,81.10945581329878L82.05628432493943,73.82677924857805L82.8687227836022,82.61100662405887L83.68116124226496,57.630890605514786L84.49359970092773,56.50850825882454L85.3060381595905,75.3204430680391L86.11847661825325,67.43034789370644L86.93091507691604,77.4455523889455L87.7433535355788,36.7437301445789L88.55579199424157,44.835957847935134L89.36823045290434,37.98950853129016L90.1806689115671,46.15977599213002L90.99310737022986,51.919610293456735L91.80554582889263,41.250537914958166L92.6179842875554,52.50771727608741L93.43042274621817,47.092281478806925L94.24286120488092,52.35541706358005L95.05529966354369,47.55305706981743L95.86773812220646,58.065550537357176L96.68017658086924,64.99752951225142L97.49261503953201,82.71541835968985L98.30505349819477,86.62162368434258L99.11749195685753,60.46714456642598L99.9299304155203,68.20906641819693L100.74236887418307,75.81210100751316L101.55480733284584,67.63380593617376L102.3672457915086,51.287415127109135L103.17968425017136,59.64296121401194L103.99212270883413,46.3789244634049L104.8045611674969,33.53221271211042L105.61699962615967,25.590498304428085L106.42943808482242,65.58869620406176L107.2418765434852,74.01588262984342L108.05431500214797,79.3705683674461L108.86675346081074,80.49437412741216L109.67919191947351,90.7317951941341L110.49163037813626,74.68858271662835L111.30406883679903,79.73641684155601L112.1165072954618,62.86415782292554L112.92894575412457,68.8887347516026L113.74138421278734,59.55197374985054L114.55382267145009,75.37630879804371L115.36626113011286,70.01750659074563L116.17869958877563,41.8506877891697L116.99113804743841,53.301878174543056L117.80357650610118,57.75514666498081L118.61601496476393,47.03421273211135L119.4284534234267,41.097021221409605L120.24089188208947,42.39737609418196L121.05333034075224,44.594627536633595L121.86576879941501,55.88320728823217L122.67820725807776,57.41609908294002L123.49064571674053,60.87313451336138L124.3030841754033,59.79897603788364L125.11552263406607,70.67131566179876L125.92796109272884,62.73211173739875L126.74039955139159,49.232865166952685L127.55283801005437,40.91806239782448L128.36527646871713,41.83220927514242L129.1777149273799,59.470696063255765L129.99015338604266,72.64079588631722L130.80259184470543,59.156048744613L131.6150303033682,50.18192829678949L132.42746876203097,50.53198016166592L133.23990722069374,43.35043722998872L134.0523456793565,62.580931526405564L134.86478413801927,62.95019408491965L135.67722259668204,62.28942914261584L136.4896610553448,86.88612114146426L137.30209951400758,59.8052932810722L138.11453797267035,52.3571209708358L138.92697643133312,50.59255464791409L139.73941488999589,57.293284074105216L140.55185334865863,55.40346263181538L141.3642918073214,57.993912104681655L142.17673026598416,68.38880307214504L142.98916872464693,80.10803398044901L143.8016071833097,61.78174237192598L144.61404564197247,55.60754170918381L145.42648410063524,53.215896610189596L146.238922559298,64.39840804178098L147.05136101796077,71.2604904919398L147.86379947662354,87.38005815871053L148.67623793528628,81.96602477494228L149.48867639394905,48.03879527688211L150.30111485261182,47.68719178411144L151.1135533112746,48.034407275678525L151.92599176993735,42.44950461301727L152.73843022860015,54.66600016141086L153.55086868726292,81.77376480739866L154.3633071459257,80.67003761181604L155.17574560458846,87.78190430290073L155.98818406325123,62.131538775136L156.80062252191397,62.12971932493213L157.61306098057673,40.49706079408083L158.4254994392395,49.654675254524385L159.23793789790227,67.28261871111155L160.05037635656504,95.63665349560763L160.8628148152278,74.20468747481158L161.67525327389058,75.62748108339373L162.48769173255334,48.1331131460492L163.3001301912161,47.950576499008946L164.11256864987885,71.22587010167337L164.92500710854162,91.88289643620631L165.7374455672044,83.39363845741512L166.54988402586716,72.65672933388835L167.36232248452993,78.5408742765597L168.1747609431927,75.87561376604876L168.98719940185546,77.20353891413846L169.79963786051823,67.16459955510253L170.612076319181,85.6638609613108L171.42451477784377,71.47977103064589L172.2369532365065,80.28475809500017L173.0493916951693,69.80921058689795L173.86183015383207,67.37222311478335L174.67426861249484,61.56880288201395L175.4867070711576,56.400260578268856L176.29914552982038,46.2109856271199L177.11158398848315,70.76992766664992L177.92402244714592,41.62928833679265L178.73646090580868,38.45010208444442L179.54889936447145,45.82718953601327L180.3613378231342,61.0392779719356L181.17377628179696,76.4963352357265L181.98621474045973,63.92715814030739L182.7986531991225,54.25160089577198L183.61109165778527,37.60075149089098L184.42353011644803,49.73024917112543L185.2359685751108,55.464514768740514L186.04840703377357,56.26203493918076L186.86084549243634,50.11275746473277L187.6732839510991,66.16915750145753L188.48572240976185,63.972421295866376L189.29816086842462,80.96567364414888L190.11059932708739,66.06383602605575L190.92303778575015,59.920636112969305L191.73547624441292,80.31552164339665L192.5479147030757,69.6542647974563L193.3603531617385,74.6184027415116L194.17279162040126,68.48696366521794L194.98523007906402,72.53456787212725L195.7976685377268,82.38990755753586L196.61010699638953,75.50081273464855L197.4225454550523,58.08015648079857L198.23498391371507,66.75112414253033L199.04742237237784,61.87108922118856L199.8598608310406,70.78035704500718L200.67229928970337,57.16976570495058L201.48473774836614,55.701369277601145L202.2971762070289,68.00410140897213L203.10961466569168,62.00335695121516L203.92205312435445,59.069157744276986L204.7344915830172,61.634757338430425L205.54693004167996,71.9325690087817L206.35936850034273,62.212508166886174L207.1718069590055,57.08002286934707L207.98424541766826,79.22445620451724L208.79668387633103,84.36363575310007L209.6091223349938,67.78112320358052L210.42156079365657,63.98656984578474L211.23399925231934,73.4276605025797L212.04643771098208,91.75047718928961L212.85887616964484,88.58908489844627L213.67131462830764,97.94416517720236L214.4837530869704,81.65541782311405L215.29619154563318,83.44957486681291L216.10863000429595,81.23512863219713L216.92106846295871,82.64146847595202L217.73350692162148,83.62871804342186L218.54594538028425,92.40802493133215L219.35838383894702,103.24249214277822L220.17082229760976,120.81082757373433L220.98326075627253,128.54676036660547L221.7956992149353,126.29943173499001L222.60813767359807,126.53759191669847L223.42057613226083,104.3141884304954L224.2330145909236,103.39937642110405L225.04545304958637,98.65477916803346L225.85789150824914,117.47692757970444L226.6703299669119,147.5261361303434L227.48276842557468,121.6268844168002L228.29520688423742,123.09770956405491L229.10764534290018,106.327646900412L229.92008380156295,114.97704467890378L230.73252226022572,104.29705199256091L231.5449607188885,133.8411882233407L232.35739917755126,131.99057476953928L233.16983763621403,104.84976186718065L233.98227609487682,108.80606990220829L234.7947145535396,126.52953332632985L235.60715301220236,122.27362367336367L236.4195914708651,102.11942906958615L237.23202992952787,92.79414444378462L238.04446838819064,90.68304560319363L238.8569068468534,93.33269458815698L239.66934530551617,101.9310758129715L240.48178376417894,92.83165762393052L241.2942222228417,120.69057463509115L242.10666068150448,116.46823266008316L242.91909914016725,117.31685139819693L243.73153759883002,118.85571902380221L244.54397605749276,130.9257344281072L245.35641451615552,140.90128355961394L246.1688529748183,136.84906440858438L246.98129143348106,119.31898709507628L247.79372989214383,98.7042309940713L248.6061683508066,113.5544181788258L249.41860680946937,116.6704567654822L250.23104526813214,120.50042481365676L251.0434837267949,137.64248469495874L251.85592218545767,156.46034166890956L252.6683606441204,154.29472615893215L253.48079910278318,110.39642014211428L254.29323756144598,132.4016245045665L255.10567602010875,128.79490564999224L255.9181144787715,157.25654459079556L256.73055293743425,144.0456866950137L257.542991396097,151.29622365748804L258.3554298547598,131.55747377705964L259.16786831342256,123.9752895179905L259.9803067720853,138.8791402115883L260.7927452307481,149.86877807203237L261.60518368941086,158.65063592394648L262.41762214807363,136.8686746009909L263.2300606067364,154.25223898497993L264.04249906539917,136.49560735889395L264.85493752406194,131.53168997361314L265.6673759827247,117.60508579223087L266.4798144413875,121.918185374246L267.29225290005024,141.13199297022717L268.104691358713,129.35678954021722L268.9171298173758,126.03865118346926L269.72956827603855,127.10465434944977L270.5420067347013,139.7018528974077L271.3544451933641,153.04457622642042L272.1668836520268,122.86232472232844L272.9793221106896,131.55227530716817L273.79176056935233,132.00536488554422L274.60419902801516,132.47121345697786L275.41663748667787,134.57944973464348L276.2290759453407,146.02888236132455L277.0415144040034,157.08557531371733L277.85395286266623,149.47867017339726L278.66639132132894,140.63243883891215L279.47882977999177,157.20644424760553L280.2912682386545,172.463106968546L281.10370669731725,167.70028541201958L281.91614515598,163.7195247546469L282.7285836146428,149.75511573557267L283.54102207330556,167.26595162525507L284.3534605319683,174.69387530140602L285.16589899063115,164.56603040341258L285.97833744929386,158.12943586980325L286.7907759079567,149.35078522208053L287.6032143666194,161.44749139478463L288.41565282528217,172.43454111231438L289.22809128394493,179.49794439819834L290.0405297426077,194.0959747728969L290.85296820127047,182.17958090720307L291.66540665993324,189.83471386917532L292.477845118596,203.42791890789223L293.2902835772588,200.676856327801L294.10272203592154,201.89830481663117L294.9151604945843,192.01287108102483L295.7275989532471,189.7941468618185L296.54003741190985,176.7438593845685L297.35247587057256,153.32937125281927L298.1649143292354,154.9622288527204L298.9773527878981,178.2493840975464L299.7897912465609,203.98767486563392L300.60222970522364,181.18992678335889L301.41466816388646,190.59506484041216L302.2271066225492,170.30137635790976L303.039545081212,170.74255384060226L303.8519835398747,177.85447039924554L304.6644219985375,180.21506216526754L305.4768604572003,189.80874801586884L306.289298915863,194.87671820826074L307.10173737452584,198.23249370013264L307.91417583318855,201.25206432958612L308.7266142918514,185.37354212857792L309.5390527505141,199.34680384366396L310.3514912091769,198.350178694199L311.1639296678396,202.5689647286713L311.97636812650245,196.76141587476394L312.78880658516516,199.24695425615553L313.60124504382793,212.09642819923803L314.4136835024907,196.6756184045505L315.22612196115347,178.36196839621923L316.03856041981624,169.9019703985888L316.850998878479,180.52001907532653L317.6634373371418,181.35411771376167L318.47587579580454,195.33488614723618L319.2883142544673,190.80760433675215L320.1007527131301,200.5966924493378L320.9131911717928,192.04994970425076L321.7256296304556,192.94483037632114L322.5380680891183,188.91668586718583L323.35050654778115,183.32620959765487L324.16294500644386,181.22341492446083L324.9753834651067,177.92112322525668L325.78782192376946,200.99402437498551L326.6002603824322,204.95801529573123L327.412698841095,186.38770994946856L328.2251372997577,201.42675571100943L329.03757575842053,200.60539908815488L329.85001421708324,186.4805204556604L330.66245267574607,194.0844575877474L331.4748911344088,200.91287712331797L332.2873295930716,206.5019925091587L333.0997680517343,185.75408694021425L333.91220651039714,188.1471563565672L334.72464496905985,185.529956604842L335.5370834277227,191.88607793209795L336.3495218863854,202.95694429654856L337.16196034504816,193.59038009594857L337.9743988037109,206.6806898455302L338.7868372623737,202.98430557101844L339.59927572103646,209.04591856034736L340.41171417969923,213.10435241271404L341.224152638362,218.7704798379612L342.03659109702477,224.06812412625717L342.84902955568754,222.46346915255396L343.6614680143503,233.45123651132133L344.473906473013,239.1341414916903L345.28634493167584,237.21312772286564L346.0987833903386,219.7099156262558L346.9112218490014,209.1114442150213L347.72366030766415,214.84606519986295L348.5360987663269,208.24855531303407L349.3485372249897,225.50366833558647L350.16097568365245,226.37796945166141L350.9734141423152,232.24917094109605L351.785852600978,248.43693934645805L352.59829105964076,228.8131712188544L353.41072951830347,219.37666884546016L354.2231679769663,236.0531376327193L355.035606435629,261.20395397187184L355.84804489429183,239.41276419103482L356.66048335295454,219.60439240873518L357.47292181161737,230.0309972734547L358.2853602702801,238.54175072649298L359.0977987289429,227.84548109726612L359.9102371876056,222.63034477825235L360.7226756462684,223.28638518996326L361.53511410493115,221.3357542224127L362.3475525635939,209.10167036566074L363.1599910222567,202.93421100925156L363.97242948091946,201.1461643469731L364.7848679395822,219.07168463247606L365.597306398245,220.78638041066992L366.4097448569078,230.7885161106469L367.22218331557053,228.99801742371298L368.03462177423336,237.91894109041104L368.84706023289607,234.93327916108638L369.65949869155884,249.50504758644868L370.4719371502216,256.00031124532205L371.2843756088844,267.6639533822116L372.09681406754714,264.34639696678863L372.9092525262099,249.50325274155813L373.7216909848727,236.0203143078889L374.53412944353545,267.30463696723604L375.3465679021982,249.38994160015451L376.159006360861,258.34021097710973L376.9714448195237,265.03889612708923L377.7838832781865,269.44883800326534L378.59632173684923,274.4842115670309L379.40876019551206,299.0848993721917L380.22119865417477,266.3364155496563L381.0336371128376,240.4402947690295L381.8460755715003,244.63147290129092L382.65851403016313,238.43633449168493L383.47095248882584,261.4400528023335L384.2833909474886,268.63942345346493L385.0958294061514,272.55525688386024L385.90826786481415,274.55143080996993L386.720706323477,291.3378538978375L387.5331447821397,270.89961852557116L388.3455832408025,274.6730647764079L389.1580216994652,267.7748916527674L389.97046015812805,277.04973271674965L390.78289861679076,313.74668417471247L391.5953370754536,307.98660059647915L392.4077755341163,283.20767450766704L393.22021399277907,288.5889063677619L394.03265245144183,263.44957165312616L394.8450909101046,264.6797095995699L395.65752936876737,241.0816510221399L396.46996782743014,241.5620003054594L397.2824062860929,245.11723553149722L398.0948447447557,236.56475409440932L398.90728320341844,236.1857283387388L399.7197216620812,258.50011002365136L400.5321601207439,250.2424304665856L401.34459857940675,235.22717948045926L402.15703703806946,258.50694359814923L402.9694754967323,269.92120597724625L403.781913955395,266.2363710830566L404.5943524140578,256.44197331237956L405.40679087272053,240.8430815691L406.21922933138336,257.02095929631486L407.03166779004613,267.63862847427106L407.8441062487089,279.77401454450194L408.65654470737167,257.2614571661079L409.4689831660344,278.5414812899606L410.2814216246972,282.5753039953436L411.0938600833599,277.99661055741825L411.90629854202274,264.4662133320188L412.71873700068545,280.5952128394343L413.5311754593483,266.6214533689721L414.343613918011,272.8549494439492L415.1560523766738,255.02182112833717L415.9684908353365,266.71736022486647L416.7809292939993,264.44155889506646L417.59336775266206,271.34701765024147L418.40580621132483,274.1378329909922L419.2182446699876,275.91083047076523L420.03068312865037,281.25656612261025L420.84312158731314,279.09439999076847L421.6555600459759,300.42978665843196L422.4679985046387,277.2719368460997L423.28043696330144,294.601155839634L424.09287542196415,340.51436309906006L424.905313880627,316.7227162229434L425.7177523392897,294.31934927132295L426.5301907979525,266.32260191889424L427.3426292566153,289.3166303005825L428.15506771527805,298.3356118140412L428.9675061739408,303.99484702481755L429.7799446326036,299.3722807492206L430.59238309126636,307.8062156776834L431.4048215499291,289.1155925752381L432.2172600085919,295.82165249666684L433.0296984672546,291.9990956865811L433.84213692591743,275.83806130037675L434.65457538458014,307.4907209104618L435.46701384324297,291.36849802707513L436.2794523019057,323.8295105989531L437.0918907605685,341.0763000168454L437.9043292192312,338.9266002868499L438.71676767789404,306.7529468558807L439.52920613655675,287.27386159945974L440.3416445952195,289.4302117785595L441.1540830538823,307.64527872117065L441.96652151254506,314.8536457874991L442.7789599712078,318.207029955825L443.5913984298706,313.0976934830717L444.40383688853336,315.1641914401492L445.21627534719613,333.5412817648109L446.0287138058589,321.6450552748423L446.84115226452167,293.38856104629076L447.6535907231845,280.2553135793214L448.4660291818472,281.2418868934854L449.27846764051,261.72141530309096L450.09090609917274,270.05023518855654L450.9033445578355,275.07010373157715L451.7157830164983,279.3235010818147L452.52822147516105,298.5493169483075L453.3406599338238,285.48918517419366L454.1530983924866,317.5154164541197L454.96553685114935,344.95046642399734L455.7779753098121,350.1530624574936L456.59041376847483,355.1263986668324L457.40285222713766,341.0219557613492L458.21529068580037,334.7027731079542L459.0277291444632,294.54062258952274L459.8401676031259,288.1177759619182L460.65260606178873,306.57349437605365L461.46504452045144,309.0063424176732L462.27748297911427,312.37340801088584L463.089921437777,299.55997168617466L463.9023598964398,312.45452765645916L464.7147983551025,303.58834326253464L465.5272368137653,302.3395669637909L466.33967527242805,329.1920652415629L467.1521137310908,337.2476636444431L467.96455218975365,339.2237862753648L468.77699064841636,308.46344632116217L469.5894291070792,319.18259192727646L470.4018675657419,312.0520970971003L471.2143060244047,308.6801885675078L472.02674448306743,344.94676112543505L472.8391829417302,343.9191548437823L473.65162140039297,327.9291055856907L474.46405985905574,319.2554075075563L475.2764983177185,322.1972445851119L476.0889367763813,319.17917003624086L476.90137523504404,324.81308173929074L477.7138136937068,347.5288937732331L478.5262521523696,356.31611865838363L479.33869061103235,361.75672057335095L480.15112906969506,362.94940779808013L480.9635675283579,359.98707208429306L481.7760059870206,341.3660506013988L482.5884444456834,342.049525942231L483.40088290434613,341.2853035797995L484.21332136300896,348.07994915129433L485.02575982167167,341.7310255453706L485.8381982803345,373.0292631168301L486.6506367389972,346.6052855723574L487.46307519766003,357.20304735586797L488.2755136563228,366.62324190603266L489.0879521149855,336.1654171408245L489.90039057364834,342.8547351715033L490.71282903231105,350.6559303252959L491.5252674909739,334.00604449003646L492.3377059496366,334.3792742045978L493.1501444082994,339.0582509431719L493.9625828669621,323.93097950634825L494.77502132562495,325.44712688135087L495.58745978428766,324.3757715854491L496.3998982429504,321.0679901208029L497.2123367016132,333.33848743460203L498.02477516027596,329.2997048123113L498.83721361893873,342.5822242790591L499.6496520776015,331.9463200058272L500.46209053626427,358.9403588654357L501.27452899492704,373.8270365275808L502.0869674535898,347.53826615852375L502.8994059122526,360.1133825878454L503.71184437091534,344.76612427176525L504.5242828295781,360.8329228474055L505.3367212882408,343.50850920725173L506.14915974690365,353.1389595056856L506.96159820556636,354.42304862826165L507.7740366642292,352.9501293760244L508.58647512289195,368.16525028070566L509.3989135815547,340.545189102191L510.2113520402175,356.8231800828792L511.02379049888026,383.0137366571781" fill="none"></path></g></g></g></g><g opacity="0.2"><g><g><g><path style="fill: none;" stroke="rgb(255, 112, 67)" stroke-width="2px" d="M40.621922933138336,-18.971933215457508L41.4343613918011,71.55267159222842L42.246799850463866,-23.533228970038902L43.05923830912663,57.85691326112483L43.8716767677894,22.26918001894907L44.68411522645217,73.51879014389743L45.49655368511493,-14.449488226778838L46.3089921437777,1.9208755397496282L47.12143060244046,10.081101201861015L47.93386906110323,8.661267586303566L48.746307519766006,11.072767001530968L49.55874597842877,-0.24769866979081123L50.371184437091536,24.776835079785958L51.1836228957543,2.721794870716071L51.996061354417066,-8.163056587920186L52.808499813079834,9.45322965735349L53.6209382717426,24.173137345173547L54.43337673040537,57.528894086231304L55.24581518906813,52.39881232695288L56.0582536477309,59.49986898363816L56.87069210639367,41.20817296502308L57.68313056505643,100.19912195249431L58.495569023719206,5.335695984417778L59.30800748238197,67.05655878932836L60.120445941044736,39.2567853287589L60.932884399707504,64.45830590078194L61.745322858370265,33.04077070309912L62.557761317033034,78.04371726484204L63.370199775695795,97.28941542396014L64.18263823435856,51.025869427464265L64.99507669302133,22.706628851135626L65.8075151516841,40.1349205569572L66.61995361034687,98.03955896226744L67.43239206900964,78.58660275893716L68.2448305276724,70.1549073700797L69.05726898633517,89.19318560679427L69.86970744499794,5.46055802927773L70.6821459036607,73.80391159810661L71.49458436232347,104.33494786104261L72.30702282098623,24.792321426750007L73.119461279649,29.675053309780388L73.93189973831177,89.0675681303751L74.74433819697452,46.07433931314765L75.5567766556373,93.12957758370798L76.36921511430008,58.93847541634215L77.18165357296284,54.19123557939796L77.99409203162561,4.617064734009483L78.80653049028837,70.46679268524412L79.61896894895114,23.271367901051043L80.4314074076139,124.67235254203044L81.24384586627667,91.84210636920565L82.05628432493943,62.90276440155002L82.8687227836022,95.78734768724172L83.68116124226496,20.16071657776384L84.49359970092773,54.82493473879092L85.3060381595905,103.5383452818432L86.11847661825325,55.59520513221177L86.93091507691604,92.46835913180055L87.7433535355788,-24.309003221962683L88.55579199424157,56.97429940296832L89.36823045290434,27.719834556322997L90.1806689115671,58.415177183389766L90.99310737022986,60.55936174544681L91.80554582889263,25.246929347210294L92.6179842875554,69.39348631778115L93.43042274621817,38.969127782886645L94.24286120488092,60.25012044073964L95.05529966354369,40.34951707917328L95.86773812220646,73.83429073866671L96.68017658086924,75.39549797459284L97.49261503953201,109.29225163084757L98.30505349819477,92.48093167132188L99.11749195685753,21.235425889551085L99.9299304155203,79.82194919585316L100.74236887418307,87.21665289148743L101.55480733284584,55.36636332916463L102.3672457915086,26.76782891351221L103.17968425017136,72.17628034436605L103.99212270883413,26.482869337494307L104.8045611674969,14.26214508516847L105.61699962615967,13.67792669290456L106.42943808482242,125.58599305351214L107.2418765434852,86.65666226851569L108.05431500214797,87.40259697385018L108.86675346081074,82.18008276736126L109.67919191947351,106.08792679421688L110.49163037813626,50.623764000369924L111.30406883679903,87.30816802894742L112.1165072954618,37.555769294979676L112.92894575412457,77.92560014461803L113.74138421278734,45.546832247222454L114.55382267145009,99.11281137033332L115.36626113011286,61.97930327979844L116.17869958877563,-0.3995404131944201L116.99113804743841,70.47866375260332L117.80357650610118,64.43504940063737L118.61601496476393,30.952811832807022L119.4284534234267,32.19123395535707L120.24089188208947,44.3479084033403L121.05333034075224,47.89050470031112L121.86576879941501,72.81607691562986L122.67820725807776,59.715436775001834L123.49064571674053,66.05868765899343L124.3030841754033,58.18773832466693L125.11552263406607,86.97982509767135L125.92796109272884,50.82330585079865L126.74039955139159,28.983995311283664L127.55283801005437,28.44585824413227L128.36527646871713,43.20342959111923L129.1777149273799,85.92842624542583L129.99015338604266,92.39594562090942L130.80259184470543,38.92892803205665L131.6150303033682,36.720747625054095L132.42746876203097,51.05705795898073L133.23990722069374,32.57812283247281L134.0523456793565,91.42667297103073L134.86478413801927,63.504087922690616L135.67722259668204,61.29828172915991L136.4896610553448,123.781159139737L137.30209951400758,19.184051490484165L138.11453797267035,41.18486250548141L138.92697643133312,47.94570516353139L139.73941488999589,67.3443782133919L140.55185334865863,52.568730468380714L141.3642918073214,61.87958631398114L142.17673026598416,83.98113952334027L142.98916872464693,97.68688034290503L143.8016071833097,34.29230495914132L144.61404564197247,46.346240715070444L145.42648410063524,49.62842896169807L146.238922559298,81.17217518916807L147.05136101796077,81.553614167178L147.86379947662354,111.55940965886649L148.67623793528628,73.84497469929L149.48867639394905,-2.8520489702080867L150.30111485261182,47.15978654495527L151.1135533112746,48.55523051302928L151.92599176993735,34.07215061902525L152.73843022860015,72.99074348400137L153.55086868726292,122.4354117763804L154.3633071459257,79.01444681844215L155.17574560458846,98.4497043395278L155.98818406325123,23.655990483489102L156.80062252191397,62.12699014962629L157.61306098057673,8.048072997803818L158.4254994392395,63.39109694518986L159.23793789790227,93.72453389599228L160.05037635656504,138.16770567235187L160.8628148152278,42.05673844361758L161.67525327389058,77.76167149626691L162.48769173255334,6.8915612400322415L163.3001301912161,47.67677152844844L164.11256864987885,106.13881050567021L164.92500710854162,122.86843593800576L165.7374455672044,70.65975148922821L166.54988402586716,56.55136564859823L167.36232248452993,87.36709169056672L168.1747609431927,71.87772300028219L168.98719940185546,79.19542663627287L169.79963786051823,52.10619051654858L170.612076319181,113.4127530706231L171.42451477784377,50.20363613464841L172.2369532365065,93.49223869153155L173.0493916951693,54.095889324744746L173.86183015383207,63.71674190661157L174.67426861249484,52.86367253285977L175.4867070711576,48.64744712265141L176.29914552982038,30.927073200396407L177.11158398848315,107.60834072594503L177.92402244714592,-2.0816706579931052L178.73646090580868,33.68132270592211L179.54889936447145,56.892820713366525L180.3613378231342,83.85741062581918L181.17377628179696,99.68192113141282L181.98621474045973,45.07339249717871L182.7986531991225,39.73826502896867L183.61109165778527,12.624477383569715L184.42353011644803,67.92449569147719L185.2359685751108,64.06591316516331L186.04840703377357,57.45831519484117L186.86084549243634,40.888841253060626L187.6732839510991,90.25375755654464L188.48572240976185,60.67731698747959L189.29816086842462,106.45555216657249L190.11059932708739,43.7110795989163L190.92303778575015,50.70583624333967L191.73547624441292,110.90784993903766L192.5479147030757,53.662379528545586L193.3603531617385,82.06460965759446L194.17279162040126,59.289805050777424L194.98523007906402,78.60597418249147L195.7976685377268,97.1729170856487L196.61010699638953,65.16717050031748L197.4225454550523,31.949172100023556L198.23498391371507,79.75757563512806L199.04742237237784,54.5510368391759L199.8598608310406,84.14425878073513L200.67229928970337,36.75387869486569L201.48473774836614,53.49877463657696L202.2971762070289,86.4581996060287L203.10961466569168,53.002240264579875L203.92205312435445,54.66785893386987L204.7344915830172,65.48315672966054L205.54693004167996,87.37928651430846L206.35936850034273,47.63241690404269L207.1718069590055,49.38129492303834L207.98424541766826,112.44110620727254L208.79668387633103,92.07240507597416L209.6091223349938,42.90735437930136L210.42156079365657,58.29473980909098L211.23399925231934,87.58929648777216L212.04643771098208,119.23470221935457L212.85887616964484,83.8469964621813L213.67131462830764,111.97678559533655L214.4837530869704,57.222296791981414L215.29619154563318,86.14081043236132L216.10863000429595,77.91345928027339L216.92106846295871,84.75097824158443L217.73350692162148,85.10959239462647L218.54594538028425,105.57698526319751L219.35838383894702,119.49419295994727L220.17082229760976,147.16333072016843L220.98326075627253,140.1506595559121L221.7956992149353,122.92843878756683L222.60813767359807,126.89483218926111L223.42057613226083,70.97908320119072L224.2330145909236,102.02715840701698L225.04545304958637,91.53788328842762L225.85789150824914,145.71015019721108L226.6703299669119,192.59994895630183L227.48276842557468,82.77800684648531L228.29520688423742,125.30394728493697L229.10764534290018,81.17255290494766L229.92008380156295,127.95114134664158L230.73252226022572,88.27706296304653L231.5449607188885,178.1573925695104L232.35739917755126,129.21465458883716L233.16983763621403,64.13854251364276L233.98227609487682,114.74053195474964L234.7947145535396,153.11472846251226L235.60715301220236,115.88975919391443L236.4195914708651,71.88813716392002L237.23202992952787,78.80621750508232L238.04446838819064,87.5163973423072L238.8569068468534,97.30716806560187L239.66934530551617,114.82864765019319L240.48178376417894,79.182530340369L241.2942222228417,162.478950151832L242.10666068150448,110.13471969757119L242.91909914016725,118.58977950536746L243.73153759883002,121.16402046221003L244.54397605749276,149.03075753456483L245.35641451615552,155.86460725687394L246.1688529748183,130.77073568203997L246.98129143348106,93.02387112481404L247.79372989214383,67.78209684256387L248.6061683508066,135.82969895595738L249.41860680946937,121.34451464546699L250.23104526813214,126.24537688591863L251.0434837267949,163.35557451691184L251.85592218545767,184.6871271298356L252.6683606441204,151.0463028939658L253.48079910278318,44.54896111688751L254.29323756144598,165.40943104824476L255.10567602010875,123.38482736813097L255.9181144787715,199.9490030020002L256.73055293743425,124.22939985134099L257.542991396097,162.17202910119957L258.3554298547598,101.94934895641714L259.16786831342256,112.60201312938682L259.9803067720853,161.23491625198488L260.7927452307481,166.35323486269832L261.60518368941086,171.82342270181778L262.41762214807363,104.19573261655746L263.2300606067364,180.32758556096346L264.04249906539917,109.86065991976494L264.85493752406194,124.08581389569177L265.6673759827247,96.71517952015738L266.4798144413875,128.38783474726887L267.29225290005024,169.95270436419906L268.104691358713,111.69398439520215L268.9171298173758,121.06144364834712L269.72956827603855,128.7036590984207L270.5420067347013,158.5976507193444L271.3544451933641,173.0586612199397L272.1668836520268,77.58894746619053L272.9793221106896,144.5872011844278L273.79176056935233,132.68499925310812L274.60419902801516,133.16998631412855L275.41663748667787,137.74180415114202L276.2290759453407,163.2030313013461L277.0415144040034,173.67061474230644L277.85395286266623,138.06831246291713L278.66639132132894,127.36309183718446L279.47882977999177,182.06745236064555L280.2912682386545,195.3481010499567L281.10370669731725,160.5560530772299L281.91614515598,157.74838376858773L282.7285836146428,128.80850220696124L283.54102207330556,193.53220545977868L284.3534605319683,185.83576081563243L285.16589899063115,149.3742630564224L285.97833744929386,148.4745440693892L286.7907759079567,136.18280925049652L287.6032143666194,179.59255065384062L288.41565282528217,188.91511568860898L289.22809128394493,190.09304932702418L290.0405297426077,215.99302033494493L290.85296820127047,164.30499010866245L291.66540665993324,201.31741331213354L292.477845118596,223.81772646596764L293.2902835772588,196.55026245766408L294.10272203592154,203.73047754987644L294.9151604945843,177.18472047761514L295.7275989532471,186.46606053300886L296.54003741190985,157.16842816869374L297.35247587057256,118.20763905519539L298.1649143292354,157.41151525257192L298.9773527878981,213.18011696478533L299.7897912465609,242.59511101776525L300.60222970522364,146.99330465994646L301.41466816388646,204.70277192599198L302.2271066225492,139.86084363415634L303.039545081212,171.40432006464093L303.8519835398747,188.52234523721071L304.6644219985375,183.75594981430052L305.4768604572003,204.19927679177064L306.289298915863,202.47867349684873L307.10173737452584,203.2661569379404L307.91417583318855,205.78142027376657L308.7266142918514,161.55575882706583L309.5390527505141,220.30669641629285L310.3514912091769,196.85524097000138L311.1639296678396,208.89714378038L311.97636812650245,188.0500925939029L312.78880658516516,202.9752618282429L313.60124504382793,231.3706391138617L314.4136835024907,173.5444037125193L315.22612196115347,150.89149338372238L316.03856041981624,157.21197340214317L316.850998878479,196.44709209043324L317.6634373371418,182.6052656714144L318.47587579580454,216.30603879744817L319.2883142544673,184.01668162102624L320.1007527131301,215.2803246182162L320.9131911717928,179.22983558661997L321.7256296304556,194.28715138442675L322.5380680891183,182.8744691034828L323.35050654778115,174.94049519335837L324.16294500644386,178.0692229146698L324.9753834651067,172.96768567645051L325.78782192376946,235.6033760995788L326.6002603824322,210.9040016768499L327.412698841095,158.53225193007458L328.2251372997577,223.98532435332066L329.03757575842053,199.37336415387318L329.85001421708324,165.2932025069188L330.66245267574607,205.49036328587786L331.4748911344088,211.15550642667367L332.2873295930716,214.88566558791985L333.0997680517343,154.63222858679768L333.91220651039714,191.7367604810967L334.72464496905985,181.60415697725418L335.5370834277227,201.42025992298184L336.3495218863854,219.56324384322437L337.16196034504816,179.54053379504847L337.9743988037109,226.31615446990259L338.7868372623737,197.4397291592507L339.59927572103646,218.13833804434074L340.41171417969923,219.19200319126395L341.224152638362,227.26967097583181L342.03659109702477,232.01459055870123L342.84902955568754,220.05648669199914L343.6614680143503,249.93288754947238L344.473906473013,247.65849896224378L345.28634493167584,234.33160706962883L346.0987833903386,193.45509748134097L346.9112218490014,193.2137370981696L347.72366030766415,223.4479966771256L348.5360987663269,198.35229048279072L349.3485372249897,251.3863378694152L350.16097568365245,227.6894211257737L350.9734141423152,241.05597317524783L351.785852600978,272.7185919545011L352.59829105964076,199.3775190274489L353.41072951830347,205.22191528536868L354.2231679769663,261.06784081360814L355.035606435629,298.93017848060083L355.84804489429183,206.72597951977934L356.66048335295454,189.89183473528576L357.47292181161737,245.67090457053408L358.2853602702801,251.3078809060503L359.0977987289429,211.8010766534258L359.9102371876056,214.80764029973164L360.7226756462684,224.27044580752982L361.53511410493115,218.40980777108683L362.3475525635939,190.75054458053262L363.1599910222567,193.6830219746376L363.97242948091946,198.46409435355554L364.7848679395822,245.95996506073055L365.597306398245,223.3584240779607L366.4097448569078,245.79171966061244L367.22218331557053,226.31226939331233L368.03462177423336,251.3003265904581L368.84706023289607,230.45478626709942L369.65949869155884,271.3627002244921L370.4719371502216,265.74320673363206L371.2843756088844,285.15941658754593L372.09681406754714,259.3700623436541L372.9092525262099,227.23853640371246L373.7216909848727,215.7959066573851L374.53412944353545,314.23112095625663L375.3465679021982,222.51789854953228L376.159006360861,271.7656150425427L376.9714448195237,275.08692385205865L377.7838832781865,276.0637508175296L378.59632173684923,282.03727191267916L379.40876019551206,335.985931079933L380.22119865417477,217.2136898158532L381.0336371128376,201.59611359808926L381.8460755715003,250.91824009968312L382.65851403016313,229.14362687727575L383.47095248882584,295.9456302683066L384.2833909474886,279.43847943016186L385.0958294061514,278.42900702945315L385.90826786481415,277.5456916991345L386.720706323477,316.5174885296386L387.5331447821397,240.24226546717173L388.3455832408025,280.33323415266307L389.1580216994652,257.4276319673064L389.97046015812805,290.96199431272305L390.78289861679076,368.79211136165685L391.5953370754536,299.34647522912917L392.4077755341163,246.03928537444887L393.22021399277907,296.66075415790425L394.03265245144183,225.74056958117265L394.8450909101046,266.5249165192354L395.65752936876737,205.68456315599497L396.46996782743014,242.28252423043864L397.2824062860929,250.4500883705539L398.0948447447557,223.73603193877747L398.90728320341844,235.61718970523313L399.7197216620812,291.97168255102014L400.5321601207439,237.85591113098704L401.34459857940675,212.70430300126972L402.15703703806946,293.4265897746843L402.9694754967323,287.0425995458918L403.781913955395,260.70911874177193L404.5943524140578,241.75037665636398L405.40679087272053,217.44474395418092L406.21922933138336,281.2877758871369L407.03166779004613,283.56513224120533L407.8441062487089,297.9770936498483L408.65654470737167,223.4926210985168L409.4689831660344,310.46151747573964L410.2814216246972,288.6260380534179L411.0938600833599,271.12857040053035L411.90629854202274,244.17061749391948L412.71873700068545,304.78871210055746L413.5311754593483,245.6608141632787L414.343613918011,282.20519355641477L415.1560523766738,228.27212865491916L415.9684908353365,284.2606688696603L416.7809292939993,261.02785690036643L417.59336775266206,281.7052057830041L418.40580621132483,278.32405600211837L419.2182446699876,278.57032669042474L420.03068312865037,289.27516960037775L420.84312158731314,275.85115079300573L421.6555600459759,332.43286665992724L422.4679985046387,242.53516212760127L423.28043696330144,320.5949843299356L424.09287542196415,409.3841739881991L424.905313880627,281.03524590876845L425.7177523392897,260.7142988438923L426.5301907979525,224.32748089025108L427.3426292566153,323.8076728731148L428.15506771527805,311.8640840842292L428.9675061739408,312.48369984098235L429.7799446326036,292.43843133582504L430.59238309126636,320.4571180703776L431.4048215499291,261.07965792157023L432.2172600085919,305.8807423788097L433.0296984672546,286.26526047145256L433.84213692591743,251.59650972107016L434.65457538458014,354.96971032558946L435.46701384324297,267.1851637019953L436.2794523019057,372.52102945677L437.0918907605685,366.94648414368373L437.9043292192312,335.7020506918568L438.71676767789404,258.4924667094267L439.52920613655675,258.0552337148285L440.3416445952195,292.6647370472091L441.1540830538823,334.9678791350874L441.96652151254506,325.66619638699177L442.7789599712078,323.237106208314L443.5913984298706,305.43368877394164L444.40383688853336,318.26393837576535L445.21627534719613,361.1069172518033L446.0287138058589,303.8007155398895L446.84115226452167,251.00381970346353L447.6535907231845,260.5554423788673L448.4660291818472,282.72174686473124L449.27846764051,232.44070791749948L450.09090609917274,282.5434650167549L450.9033445578355,282.5999065461082L451.7157830164983,285.7035971071711L452.52822147516105,327.3880407480467L453.3406599338238,265.89898751302303L454.1530983924866,365.55476337400876L454.96553685114935,386.1030413788136L455.7779753098121,357.956956507738L456.59041376847483,362.58640298084066L457.40285222713766,319.8652914031244L458.21529068580037,325.2239991278616L459.0277291444632,234.29739681187547L459.8401676031259,278.4835060205113L460.65260606178873,334.25707199725673L461.46504452045144,312.6556144801024L462.27748297911427,317.42400640070485L463.089921437777,280.3398171991077L463.9023598964398,331.79636161188574L464.7147983551025,290.2890666716477L465.5272368137653,300.4664025156755L466.33967527242805,369.47081265822055L467.1521137310908,349.33106124876343L467.96455218975365,342.1879702217472L468.77699064841636,262.3229363898581L469.5894291070792,335.26131033644793L470.4018675657419,301.356354851836L471.2143060244047,303.6223257731189L472.02674448306743,399.3466199623258L472.8391829417302,342.37774542130313L473.65162140039297,303.94403169855326L474.46405985905574,306.24486039035463L475.2764983177185,326.6100002014453L476.0889367763813,314.6520582129345L476.90137523504404,333.26394929386544L477.7138136937068,381.6026118241466L478.5262521523696,369.49695598610936L479.33869061103235,369.9176234458018L480.15112906969506,364.7384386351739L480.9635675283579,355.5435685136126L481.7760059870206,313.4345183770572L482.5884444456834,343.0747389534795L483.40088290434613,340.1389700361521L484.21332136300896,358.27191750853643L485.02575982167167,332.20764013648494L485.8381982803345,419.9766194740194L486.6506367389972,306.9693192556484L487.46307519766003,373.09969003113395L488.2755136563228,380.75353373127984L489.0879521149855,290.47867999301235L489.90039057364834,352.88871221752163L490.71282903231105,362.3577230559848L491.5252674909739,309.0312157371473L492.3377059496366,334.93911877643984L493.1501444082994,346.07671605103286L493.9625828669621,301.2400723511129L494.77502132562495,327.72134794385477L495.58745978428766,322.7687386415964L496.3998982429504,316.1063179238336L497.2123367016132,351.7442334053005L498.02477516027596,323.2415308788751L498.83721361893873,362.50600347918066L499.6496520776015,315.9924635959795L500.46209053626427,399.43141715484853L501.27452899492704,396.15705302079857L502.0869674535898,308.10511060493843L502.8994059122526,378.9760572318279L503.71184437091534,321.745236797645L504.5242828295781,384.93312071086586L505.3367212882408,317.52188874702114L506.14915974690365,367.5846349533364L506.96159820556636,356.3491823121256L507.7740366642292,350.7407504976685L508.58647512289195,390.98793163772746L509.3989135815547,299.1150973344189L510.2113520402175,381.24016655391137" fill="none"></path></g></g></g></g></g></g><g transform="translate(61, 376)" clip-path="url(#clip_1)"><clipPath id="clip_1"><rect width="528" height="23"></rect></clipPath><g><g><line x1="0" y1="0" x2="0" y2="5" style="visibility: inherit;" fill="rgb(0, 0, 0)" stroke="rgb(204, 204, 204)" stroke-width="1px"></line><line x1="40.621922933138336" y1="0" x2="40.621922933138336" y2="5" style="visibility: inherit;" fill="rgb(0, 0, 0)" stroke="rgb(204, 204, 204)" stroke-width="1px"></line><line x1="81.24384586627667" y1="0" x2="81.24384586627667" y2="5" style="visibility: inherit;" fill="rgb(0, 0, 0)" stroke="rgb(204, 204, 204)" stroke-width="1px"></line><line x1="121.86576879941501" y1="0" x2="121.86576879941501" y2="5" style="visibility: inherit;" fill="rgb(0, 0, 0)" stroke="rgb(204, 204, 204)" stroke-width="1px"></line><line x1="162.48769173255334" y1="0" x2="162.48769173255334" y2="5" style="visibility: inherit;" fill="rgb(0, 0, 0)" stroke="rgb(204, 204, 204)" stroke-width="1px"></line><line x1="203.10961466569168" y1="0" x2="203.10961466569168" y2="5" style="visibility: inherit;" fill="rgb(0, 0, 0)" stroke="rgb(204, 204, 204)" stroke-width="1px"></line><line x1="243.73153759883002" y1="0" x2="243.73153759883002" y2="5" style="visibility: inherit;" fill="rgb(0, 0, 0)" stroke="rgb(204, 204, 204)" stroke-width="1px"></line><line x1="284.3534605319683" y1="0" x2="284.3534605319683" y2="5" style="visibility: inherit;" fill="rgb(0, 0, 0)" stroke="rgb(204, 204, 204)" stroke-width="1px"></line><line x1="324.9753834651067" y1="0" x2="324.9753834651067" y2="5" style="visibility: inherit;" fill="rgb(0, 0, 0)" stroke="rgb(204, 204, 204)" stroke-width="1px"></line><line x1="365.597306398245" y1="0" x2="365.597306398245" y2="5" style="visibility: inherit;" fill="rgb(0, 0, 0)" stroke="rgb(204, 204, 204)" stroke-width="1px"></line><line x1="406.21922933138336" y1="0" x2="406.21922933138336" y2="5" style="visibility: inherit;" fill="rgb(0, 0, 0)" stroke="rgb(204, 204, 204)" stroke-width="1px"></line><line x1="446.84115226452167" y1="0" x2="446.84115226452167" y2="5" style="visibility: inherit;" fill="rgb(0, 0, 0)" stroke="rgb(204, 204, 204)" stroke-width="1px"></line><line x1="487.46307519766003" y1="0" x2="487.46307519766003" y2="5" style="visibility: inherit;" fill="rgb(0, 0, 0)" stroke="rgb(204, 204, 204)" stroke-width="1px"></line><line x1="528.0849981307983" y1="0" x2="528.0849981307983" y2="5" style="visibility: inherit;" fill="rgb(0, 0, 0)" stroke="rgb(204, 204, 204)" stroke-width="1px"></line></g><g transform="translate(0, 8)"><text style="text-anchor: middle; visibility: hidden; font-family: Roboto, sans-serif; font-size: 12px; font-weight: 200;" x="0" y="0" dx="0em" dy="0.95em" fill="rgb(33, 33, 33)" stroke="none" stroke-width="1px">-50</text><text style="text-anchor: middle; visibility: inherit; font-family: Roboto, sans-serif; font-size: 12px; font-weight: 200;" x="40.621922933138336" y="0" dx="0em" dy="0.95em" fill="rgb(33, 33, 33)" stroke="none" stroke-width="1px">0</text><text style="text-anchor: middle; visibility: inherit; font-family: Roboto, sans-serif; font-size: 12px; font-weight: 200;" x="81.24384586627667" y="0" dx="0em" dy="0.95em" fill="rgb(33, 33, 33)" stroke="none" stroke-width="1px">50</text><text style="text-anchor: middle; visibility: inherit; font-family: Roboto, sans-serif; font-size: 12px; font-weight: 200;" x="121.86576879941501" y="0" dx="0em" dy="0.95em" fill="rgb(33, 33, 33)" stroke="none" stroke-width="1px">100</text><text style="text-anchor: middle; visibility: inherit; font-family: Roboto, sans-serif; font-size: 12px; font-weight: 200;" x="162.48769173255334" y="0" dx="0em" dy="0.95em" fill="rgb(33, 33, 33)" stroke="none" stroke-width="1px">150</text><text style="text-anchor: middle; visibility: inherit; font-family: Roboto, sans-serif; font-size: 12px; font-weight: 200;" x="203.10961466569168" y="0" dx="0em" dy="0.95em" fill="rgb(33, 33, 33)" stroke="none" stroke-width="1px">200</text><text style="text-anchor: middle; visibility: inherit; font-family: Roboto, sans-serif; font-size: 12px; font-weight: 200;" x="243.73153759883002" y="0" dx="0em" dy="0.95em" fill="rgb(33, 33, 33)" stroke="none" stroke-width="1px">250</text><text style="text-anchor: middle; visibility: inherit; font-family: Roboto, sans-serif; font-size: 12px; font-weight: 200;" x="284.3534605319683" y="0" dx="0em" dy="0.95em" fill="rgb(33, 33, 33)" stroke="none" stroke-width="1px">300</text><text style="text-anchor: middle; visibility: inherit; font-family: Roboto, sans-serif; font-size: 12px; font-weight: 200;" x="324.9753834651067" y="0" dx="0em" dy="0.95em" fill="rgb(33, 33, 33)" stroke="none" stroke-width="1px">350</text><text style="text-anchor: middle; visibility: inherit; font-family: Roboto, sans-serif; font-size: 12px; font-weight: 200;" x="365.597306398245" y="0" dx="0em" dy="0.95em" fill="rgb(33, 33, 33)" stroke="none" stroke-width="1px">400</text><text style="text-anchor: middle; visibility: inherit; font-family: Roboto, sans-serif; font-size: 12px; font-weight: 200;" x="406.21922933138336" y="0" dx="0em" dy="0.95em" fill="rgb(33, 33, 33)" stroke="none" stroke-width="1px">450</text><text style="text-anchor: middle; visibility: inherit; font-family: Roboto, sans-serif; font-size: 12px; font-weight: 200;" x="446.84115226452167" y="0" dx="0em" dy="0.95em" fill="rgb(33, 33, 33)" stroke="none" stroke-width="1px">500</text><text style="text-anchor: middle; visibility: inherit; font-family: Roboto, sans-serif; font-size: 12px; font-weight: 200;" x="487.46307519766003" y="0" dx="0em" dy="0.95em" fill="rgb(33, 33, 33)" stroke="none" stroke-width="1px">550</text><text style="text-anchor: middle; visibility: hidden; font-family: Roboto, sans-serif; font-size: 12px; font-weight: 200;" x="528.0849981307983" y="0" dx="0em" dy="0.95em" fill="rgb(33, 33, 33)" stroke="none" stroke-width="1px">600</text></g><line x1="0" y1="0" x2="528.0849981307983" y2="0" fill="rgb(0, 0, 0)" stroke="rgb(204, 204, 204)" stroke-width="1px"></line></g></g></g></g></svg>