<svg viewBox="0 0 330 200" xmlns="http://www.w3.org/2000/svg"><g><g><g><g><g><line x1="59.98000144958496" y1="177.61999988555908" x2="54.98000144958496" y2="177.61999988555908" style="visibility: inherit;" fill="rgb(0, 0, 0)" stroke="rgb(204, 204, 204)" stroke-width="1px"></line><line x1="59.98000144958496" y1="164.93285703659058" x2="54.98000144958496" y2="164.93285703659058" style="visibility: inherit;" fill="rgb(0, 0, 0)" stroke="rgb(204, 204, 204)" stroke-width="1px"></line><line x1="59.98000144958496" y1="152.24571418762207" x2="54.98000144958496" y2="152.24571418762207" style="visibility: inherit;" fill="rgb(0, 0, 0)" stroke="rgb(204, 204, 204)" stroke-width="1px"></line><line x1="59.98000144958496" y1="139.55857133865354" x2="54.98000144958496" y2="139.55857133865354" style="visibility: inherit;" fill="rgb(0, 0, 0)" stroke="rgb(204, 204, 204)" stroke-width="1px"></line><line x1="59.98000144958496" y1="126.87142848968506" x2="54.98000144958496" y2="126.87142848968506" style="visibility: inherit;" fill="rgb(0, 0, 0)" stroke="rgb(204, 204, 204)" stroke-width="1px"></line><line x1="59.98000144958496" y1="114.18428564071654" x2="54.98000144958496" y2="114.18428564071654" style="visibility: inherit;" fill="rgb(0, 0, 0)" stroke="rgb(204, 204, 204)" stroke-width="1px"></line><line x1="59.98000144958496" y1="101.49714279174805" x2="54.98000144958496" y2="101.49714279174805" style="visibility: inherit;" fill="rgb(0, 0, 0)" stroke="rgb(204, 204, 204)" stroke-width="1px"></line><line x1="59.98000144958496" y1="88.80999994277953" x2="54.98000144958496" y2="88.80999994277953" style="visibility: inherit;" fill="rgb(0, 0, 0)" stroke="rgb(204, 204, 204)" stroke-width="1px"></line><line x1="59.98000144958496" y1="76.12285709381102" x2="54.98000144958496" y2="76.12285709381102" style="visibility: inherit;" fill="rgb(0, 0, 0)" stroke="rgb(204, 204, 204)" stroke-width="1px"></line><line x1="59.98000144958496" y1="63.43571424484254" x2="54.98000144958496" y2="63.43571424484254" style="visibility: inherit;" fill="rgb(0, 0, 0)" stroke="rgb(204, 204, 204)" stroke-width="1px"></line><line x1="59.98000144958496" y1="50.74857139587402" x2="54.98000144958496" y2="50.74857139587402" style="visibility: inherit;" fill="rgb(0, 0, 0)" stroke="rgb(204, 204, 204)" stroke-width="1px"></line><line x1="59.98000144958496" y1="38.0614285469055" x2="54.98000144958496" y2="38.0614285469055" style="visibility: inherit;" fill="rgb(0, 0, 0)" stroke="rgb(204, 204, 204)" stroke-width="1px"></line><line x1="59.98000144958496" y1="25.37428569793698" x2="54.98000144958496" y2="25.37428569793698" style="visibility: inherit;" fill="rgb(0, 0, 0)" stroke="rgb(204, 204, 204)" stroke-width="1px"></line><line x1="59.98000144958496" y1="12.68714284896852" x2="54.98000144958496" y2="12.68714284896852" style="visibility: inherit;" fill="rgb(0, 0, 0)" stroke="rgb(204, 204, 204)" stroke-width="1px"></line><line x1="59.98000144958496" y1="0" x2="54.98000144958496" y2="0" style="visibility: inherit;" fill="rgb(0, 0, 0)" stroke="rgb(204, 204, 204)" stroke-width="1px"></line></g><g transform="translate(49.98000144958496, 0)"><text style="text-anchor: end; visibility: hidden; font-family: Roboto, sans-serif; font-size: 12px; font-weight: 200;" x="0" y="177.61999988555908" dx="0em" dy="0.3em" fill="rgb(33, 33, 33)" stroke="none" stroke-width="1px">9e-3</text><text style="text-anchor: end; visibility: inherit; font-family: Roboto, sans-serif; font-size: 12px; font-weight: 200;" x="0" y="164.93285703659058" dx="0em" dy="0.3em" fill="rgb(33, 33, 33)" stroke="none" stroke-width="1px">0.01</text><text style="text-anchor: end; visibility: hidden; font-family: Roboto, sans-serif; font-size: 12px; font-weight: 200;" x="0" y="152.24571418762207" dx="0em" dy="0.3em" fill="rgb(33, 33, 33)" stroke="none" stroke-width="1px">0.011</text><text style="text-anchor: end; visibility: hidden; font-family: Roboto, sans-serif; font-size: 12px; font-weight: 200;" x="0" y="139.55857133865354" dx="0em" dy="0.3em" fill="rgb(33, 33, 33)" stroke="none" stroke-width="1px">0.012</text><text style="text-anchor: end; visibility: inherit; font-family: Roboto, sans-serif; font-size: 12px; font-weight: 200;" x="0" y="126.87142848968506" dx="0em" dy="0.3em" fill="rgb(33, 33, 33)" stroke="none" stroke-width="1px">0.013</text><text style="text-anchor: end; visibility: hidden; font-family: Roboto, sans-serif; font-size: 12px; font-weight: 200;" x="0" y="114.18428564071654" dx="0em" dy="0.3em" fill="rgb(33, 33, 33)" stroke="none" stroke-width="1px">0.014</text><text style="text-anchor: end; visibility: hidden; font-family: Roboto, sans-serif; font-size: 12px; font-weight: 200;" x="0" y="101.49714279174805" dx="0em" dy="0.3em" fill="rgb(33, 33, 33)" stroke="none" stroke-width="1px">0.015</text><text style="text-anchor: end; visibility: inherit; font-family: Roboto, sans-serif; font-size: 12px; font-weight: 200;" x="0" y="88.80999994277953" dx="0em" dy="0.3em" fill="rgb(33, 33, 33)" stroke="none" stroke-width="1px">0.016</text><text style="text-anchor: end; visibility: hidden; font-family: Roboto, sans-serif; font-size: 12px; font-weight: 200;" x="0" y="76.12285709381102" dx="0em" dy="0.3em" fill="rgb(33, 33, 33)" stroke="none" stroke-width="1px">0.017</text><text style="text-anchor: end; visibility: hidden; font-family: Roboto, sans-serif; font-size: 12px; font-weight: 200;" x="0" y="63.43571424484254" dx="0em" dy="0.3em" fill="rgb(33, 33, 33)" stroke="none" stroke-width="1px">0.018</text><text style="text-anchor: end; visibility: inherit; font-family: Roboto, sans-serif; font-size: 12px; font-weight: 200;" x="0" y="50.74857139587402" dx="0em" dy="0.3em" fill="rgb(33, 33, 33)" stroke="none" stroke-width="1px">0.019</text><text style="text-anchor: end; visibility: hidden; font-family: Roboto, sans-serif; font-size: 12px; font-weight: 200;" x="0" y="38.0614285469055" dx="0em" dy="0.3em" fill="rgb(33, 33, 33)" stroke="none" stroke-width="1px">0.02</text><text style="text-anchor: end; visibility: hidden; font-family: Roboto, sans-serif; font-size: 12px; font-weight: 200;" x="0" y="25.37428569793698" dx="0em" dy="0.3em" fill="rgb(33, 33, 33)" stroke="none" stroke-width="1px">0.021</text><text style="text-anchor: end; visibility: inherit; font-family: Roboto, sans-serif; font-size: 12px; font-weight: 200;" x="0" y="12.68714284896852" dx="0em" dy="0.3em" fill="rgb(33, 33, 33)" stroke="none" stroke-width="1px">0.022</text><text style="text-anchor: end; visibility: hidden; font-family: Roboto, sans-serif; font-size: 12px; font-weight: 200;" x="0" y="0" dx="0em" dy="0.3em" fill="rgb(33, 33, 33)" stroke="none" stroke-width="1px">0.023</text></g><line x1="59.98000144958496" y1="0" x2="59.98000144958496" y2="177.61999988555908" fill="rgb(0, 0, 0)" stroke="rgb(204, 204, 204)" stroke-width="1px"></line></g></g><g transform="translate(59, 0)" clip-path="url(#clip_0)"><clipPath id="clip_0"><rect width="270" height="177"></rect></clipPath><g><g><g><line x1="0" y1="0" x2="0" y2="177.61999988555908" fill="rgb(0, 0, 0)" stroke="rgb(66, 66, 66)" stroke-width="1px" opacity="0.25"></line><line x1="20.770769119262695" y1="0" x2="20.770769119262695" y2="177.61999988555908" fill="rgb(0, 0, 0)" stroke="rgb(66, 66, 66)" stroke-width="1px" opacity="0.25"></line><line x1="41.54153823852539" y1="0" x2="41.54153823852539" y2="177.61999988555908" fill="rgb(0, 0, 0)" stroke="rgb(66, 66, 66)" stroke-width="1px" opacity="0.25"></line><line x1="62.312307357788086" y1="0" x2="62.312307357788086" y2="177.61999988555908" fill="rgb(0, 0, 0)" stroke="rgb(66, 66, 66)" stroke-width="1px" opacity="0.25"></line><line x1="83.08307647705078" y1="0" x2="83.08307647705078" y2="177.61999988555908" fill="rgb(0, 0, 0)" stroke="rgb(66, 66, 66)" stroke-width="1px" opacity="0.25"></line><line x1="103.85384559631348" y1="0" x2="103.85384559631348" y2="177.61999988555908" fill="rgb(0, 0, 0)" stroke="rgb(66, 66, 66)" stroke-width="1px" opacity="0.25"></line><line x1="124.62461471557617" y1="0" x2="124.62461471557617" y2="177.61999988555908" fill="rgb(0, 0, 0)" stroke="rgb(66, 66, 66)" stroke-width="1px" opacity="0.25"></line><line x1="145.39538383483887" y1="0" x2="145.39538383483887" y2="177.61999988555908" fill="rgb(0, 0, 0)" stroke="rgb(66, 66, 66)" stroke-width="1px" opacity="0.25"></line><line x1="166.16615295410156" y1="0" x2="166.16615295410156" y2="177.61999988555908" fill="rgb(0, 0, 0)" stroke="rgb(66, 66, 66)" stroke-width="1px" opacity="0.25"></line><line x1="186.93692207336426" y1="0" x2="186.93692207336426" y2="177.61999988555908" fill="rgb(0, 0, 0)" stroke="rgb(66, 66, 66)" stroke-width="1px" opacity="0.25"></line><line x1="207.70769119262695" y1="0" x2="207.70769119262695" y2="177.61999988555908" fill="rgb(0, 0, 0)" stroke="rgb(66, 66, 66)" stroke-width="1px" opacity="0.25"></line><line x1="228.47846031188965" y1="0" x2="228.47846031188965" y2="177.61999988555908" fill="rgb(0, 0, 0)" stroke="rgb(66, 66, 66)" stroke-width="1px" opacity="0.25"></line><line x1="249.24922943115234" y1="0" x2="249.24922943115234" y2="177.61999988555908" fill="rgb(0, 0, 0)" stroke="rgb(66, 66, 66)" stroke-width="1px" opacity="0.25"></line><line x1="270.01999855041504" y1="0" x2="270.01999855041504" y2="177.61999988555908" fill="rgb(0, 0, 0)" stroke="rgb(66, 66, 66)" stroke-width="1px" opacity="0.25"></line></g><g><line x1="0" y1="177.61999988555908" x2="270.01999855041504" y2="177.61999988555908" fill="rgb(0, 0, 0)" stroke="rgb(66, 66, 66)" stroke-width="1px" opacity="0.25"></line><line x1="0" y1="164.93285703659058" x2="270.01999855041504" y2="164.93285703659058" fill="rgb(0, 0, 0)" stroke="rgb(66, 66, 66)" stroke-width="1px" opacity="0.25"></line><line x1="0" y1="152.24571418762207" x2="270.01999855041504" y2="152.24571418762207" fill="rgb(0, 0, 0)" stroke="rgb(66, 66, 66)" stroke-width="1px" opacity="0.25"></line><line x1="0" y1="139.55857133865354" x2="270.01999855041504" y2="139.55857133865354" fill="rgb(0, 0, 0)" stroke="rgb(66, 66, 66)" stroke-width="1px" opacity="0.25"></line><line x1="0" y1="126.87142848968506" x2="270.01999855041504" y2="126.87142848968506" fill="rgb(0, 0, 0)" stroke="rgb(66, 66, 66)" stroke-width="1px" opacity="0.25"></line><line x1="0" y1="114.18428564071654" x2="270.01999855041504" y2="114.18428564071654" fill="rgb(0, 0, 0)" stroke="rgb(66, 66, 66)" stroke-width="1px" opacity="0.25"></line><line x1="0" y1="101.49714279174805" x2="270.01999855041504" y2="101.49714279174805" fill="rgb(0, 0, 0)" stroke="rgb(66, 66, 66)" stroke-width="1px" opacity="0.25"></line><line x1="0" y1="88.80999994277953" x2="270.01999855041504" y2="88.80999994277953" fill="rgb(0, 0, 0)" stroke="rgb(66, 66, 66)" stroke-width="1px" opacity="0.25"></line><line x1="0" y1="76.12285709381102" x2="270.01999855041504" y2="76.12285709381102" fill="rgb(0, 0, 0)" stroke="rgb(66, 66, 66)" stroke-width="1px" opacity="0.25"></line><line x1="0" y1="63.43571424484254" x2="270.01999855041504" y2="63.43571424484254" fill="rgb(0, 0, 0)" stroke="rgb(66, 66, 66)" stroke-width="1px" opacity="0.25"></line><line x1="0" y1="50.74857139587402" x2="270.01999855041504" y2="50.74857139587402" fill="rgb(0, 0, 0)" stroke="rgb(66, 66, 66)" stroke-width="1px" opacity="0.25"></line><line x1="0" y1="38.0614285469055" x2="270.01999855041504" y2="38.0614285469055" fill="rgb(0, 0, 0)" stroke="rgb(66, 66, 66)" stroke-width="1px" opacity="0.25"></line><line x1="0" y1="25.37428569793698" x2="270.01999855041504" y2="25.37428569793698" fill="rgb(0, 0, 0)" stroke="rgb(66, 66, 66)" stroke-width="1px" opacity="0.25"></line><line x1="0" y1="12.68714284896852" x2="270.01999855041504" y2="12.68714284896852" fill="rgb(0, 0, 0)" stroke="rgb(66, 66, 66)" stroke-width="1px" opacity="0.25"></line><line x1="0" y1="0" x2="270.01999855041504" y2="0" fill="rgb(0, 0, 0)" stroke="rgb(66, 66, 66)" stroke-width="1px" opacity="0.25"></line></g></g></g><g><g><line x1="0" y1="291.80428552627563" x2="270.01999855041504" y2="291.80428552627563" fill="rgb(0, 0, 0)" stroke="rgb(153, 153, 153)" stroke-width="1.5px"></line></g></g><g><g><line x1="20.770769119262695" y1="0" x2="20.770769119262695" y2="177.61999988555908" fill="rgb(0, 0, 0)" stroke="rgb(153, 153, 153)" stroke-width="1.5px"></line></g></g><g><g><g><g><g><path style="fill: none;" stroke="rgb(255, 112, 67)" stroke-width="2px" d="M20.770769119262695,42.62943121347557L21.186184501647947,18.303089611629282L21.601599884033202,4.748362306397213L22.017015266418454,3.0099660638747148L22.43243064880371,-3.1143175288582112L22.847846031188965,6.259939241811066L23.263261413574217,-1.0918607912220675L25.340338325500486,-3.1440526824694883L25.75575370788574,0.7300476740613709L26.171169090270993,-7.786919104301703L30.740738296508788,-4.619274807649067L31.156153678894043,0.8040160203239187L31.571569061279295,-2.8957853296045184L31.98698444366455,-4.32899412606252L32.4023998260498,1.9103135384461563L32.81781520843506,7.959532807289968L33.23323059082031,9.741229317125057L33.64864597320557,11.800639943459679L34.064061355590816,16.386393455542443L34.47947673797607,12.949927337760816L34.89489212036133,14.282648531032203L35.31030750274658,14.401869447362317L35.72572288513184,11.968230190700433L36.141138267517086,15.065305438712791L36.55655364990234,21.08835390862807L36.971969032287596,12.897334959570873L37.38738441467285,10.860755485776558L37.80279979705811,19.094178754043917L38.218215179443355,16.398621319432817L38.63363056182861,24.53099467366727L39.049045944213866,25.672941677475926L39.46446132659912,26.768998019136756L39.879876708984376,25.404349069516094L40.295292091369625,30.667711816763173L40.71070747375488,34.22896095145957L41.126122856140135,41.974974425670744L41.54153823852539,47.07827624866718L41.95695362091064,45.074322680197305L42.372369003295894,49.72664334570521L42.78778438568115,38.16160339723498L43.203199768066405,37.92432492117571L43.61861515045166,41.145733460263486L44.03403053283691,47.74690609106554L44.449445915222164,42.26814754606755L44.86486129760742,38.46717826554843L45.280276679992674,45.64030397637197L45.69569206237793,50.51933583360827L46.11110744476318,52.15107911121689L46.52652282714843,53.209669195138936L46.94193820953369,58.68010359903937L47.357353591918944,60.74698873464619L47.7727689743042,62.86601850736214L48.18818435668945,63.03059628380571L48.6035997390747,66.65748139229066L49.01901512145996,71.90152933829461L49.43443050384521,76.79911972266075L49.84984588623047,75.34662126404545L50.26526126861572,77.61473748097777L50.68067665100097,71.98365566382152L51.09609203338623,73.70804291854881L51.51150741577148,77.98448324949322L51.92692279815674,80.11816247008313L52.34233818054199,80.69807928463939L52.75775356292724,82.60568959102432L53.1731689453125,85.3474524975598L53.58858432769775,82.29227056060891L54.00399971008301,82.41000096351443L54.419415092468256,89.28285227418404L54.83483047485351,88.37393483893182L55.25024585723877,88.96381079704283L55.66566123962402,90.16792734081176L56.08107662200928,96.028625857955L56.496492004394526,93.46313862049958L56.91190738677978,95.72376281811235L57.327322769165036,95.69104560692502L57.74273815155029,100.1900741265789L58.15815353393555,92.30239608196216L58.573568916320795,95.06945251817683L58.98898429870605,89.21976698295391L59.404399681091306,91.30211034415717L59.81981506347656,92.04388971913227L60.235230445861816,94.71672670528913L60.650645828247065,98.18477664104738L61.06606121063232,90.17390634834393L61.481476593017575,94.48512980633748L61.89689197540283,97.11101679071088L62.312307357788086,101.16254514248196L62.727722740173334,96.95831063638386L63.14313812255859,97.13595005813764L63.558553504943845,92.99043509505604L63.9739688873291,97.16578959557604L64.38938426971436,99.07899650219987L64.8047996520996,101.03167268790664L65.22021503448487,96.76720600645261L65.63563041687011,93.55084786220016L66.05104579925538,101.10821211688179L66.46646118164062,101.7397888626005L66.88187656402587,99.27622138627078L67.29729194641114,102.3133320636179L67.71270732879638,102.53256945731461L68.12812271118163,107.3681231849604L68.5435380935669,107.09422724030291L68.95895347595214,106.17002830477983L69.3743688583374,100.7136346140686L69.78978424072265,106.1353268831777L70.20519962310792,108.17397344599034L70.62061500549316,111.15131476670956L71.03603038787843,108.81115224169994L71.45144577026367,110.60505436114327L71.86686115264892,105.07040038325465L72.28227653503417,109.08402934441229L72.69769191741943,112.33367288664374L73.11310729980468,117.65429104592705L73.52852268218994,113.8894678177728L73.94393806457519,114.91951281194635L74.35935344696045,116.23801957940887L74.7747688293457,108.83784719917921L75.19018421173097,108.19917746274186L75.60559959411621,112.02938450767985L76.02101497650146,113.10879171329411L76.43643035888671,111.4894948605976L76.85184574127197,116.1776153992993L77.26726112365722,115.85046123979434L77.68267650604248,116.52251354274816L78.09809188842773,116.0806158539954L78.513507270813,120.07146562565862L78.92892265319824,119.11386444394863L79.3443380355835,115.64928587821129L79.75975341796875,116.34588640086864L80.175168800354,111.16644580691711L80.59058418273925,112.39076920605523L81.00599956512451,113.42829730388569L81.42141494750976,118.68759342374426L81.83683032989502,115.87078797023001L82.25224571228027,118.52132745674463L82.66766109466553,119.36188521870527L83.08307647705078,121.21711814084986L83.49849185943604,120.09936915581358L83.91390724182128,123.40276371852383L84.32932262420654,125.6175721602395L84.74473800659179,127.5323566018671L85.16015338897705,125.61782403014195L85.5755687713623,120.82466999269464L85.99098415374756,123.93694663457255L86.40639953613281,124.97616524933241L86.82181491851807,124.73082699701062L87.23723030090332,121.08198140346832L87.65264568328858,122.61332059715504L88.06806106567382,122.12201912480229L88.48347644805908,122.86070207058702L88.89889183044433,124.50231509729107L89.31430721282959,127.17692190526249L89.72972259521484,127.09208480872847L90.1451379776001,125.87011637860945L90.56055335998535,123.5968279260304L90.97596874237061,115.92331904862256L91.39138412475586,120.41885751565823L91.80679950714112,120.05209204147052L92.22221488952636,119.33480876537756L92.63763027191162,124.04907156642176L93.05304565429687,126.57321112138933L93.46846103668213,125.67665263290405L93.88387641906738,122.52201856382833L94.29929180145264,125.89903826044129L94.71470718383789,132.61619307010474L95.13012256622315,130.41945767569302L95.5455379486084,124.54003630469458L95.96095333099366,128.55072229542682L96.3763687133789,130.72114828204502L96.79178409576416,125.17054818967199L97.2071994781494,127.39600207277311L97.62261486053467,127.42210489655706L98.03803024291992,130.13230347939373L98.45344562530518,126.7962403414408L98.86886100769043,131.58597805515927L99.28427639007569,136.32573284235906L99.69969177246094,138.4414285609967L100.1151071548462,137.2184589220011L100.53052253723143,135.09824633208535L100.9459379196167,129.8345117857765L101.36135330200194,132.28418332127103L101.7767686843872,131.26723768290694L102.19218406677246,134.1982345052782L102.60759944915772,128.84362235412405L103.02301483154297,126.14315131824722L103.43843021392823,129.97342256170742L103.85384559631348,125.18509300113999L104.26926097869874,123.48056195603878L104.68467636108397,128.19900025990646L105.10009174346924,128.75055003097665L105.51550712585448,129.76947270331414L105.93092250823975,128.09138307820132L106.346337890625,131.84756771765535L106.76175327301026,137.99229975954637L107.1771686553955,139.47238760864798L107.59258403778077,131.04188714354603L108.00799942016602,133.91846940867535L108.42341480255126,135.5063059812168L108.83883018493651,131.90903242230843L109.25424556732177,136.12523365376933L109.66966094970702,136.73636729678216L110.08507633209229,132.41310647264584L110.50049171447753,136.51550745609552L110.9159070968628,132.96561051697748L111.33132247924804,135.82127832777007L111.7467378616333,138.3685972323423L112.16215324401855,140.53738725157933L112.5775686264038,141.16691284625776L112.99298400878905,143.77568236290347L113.40839939117431,141.92727259273593L113.82381477355956,143.45285739891068L114.23923015594482,136.55569039667634L114.65464553833007,136.50924262614672L115.07006092071533,137.05576945559957L115.48547630310058,143.6489829195321L115.90089168548585,142.6393163006864L116.3163070678711,139.6873335210141L116.73172245025634,138.70082317560778L117.14713783264159,140.2560220722019L117.56255321502685,141.41869921051628L117.9779685974121,140.17413401584614L118.39338397979736,138.9403041568763L118.80879936218261,137.80763585915724L119.22421474456787,133.7272426469423L119.63963012695312,137.1314686988932L120.05504550933838,139.92981996115373L120.47046089172363,144.441919942211L120.88587627410888,138.41491918101485L121.30129165649413,136.72683882578823L121.71670703887939,134.25560617317836L122.13212242126464,139.95931602063754L122.5475378036499,141.62284654389606L122.96295318603515,142.4342181457296L123.37836856842041,144.0634137355659L123.79378395080566,139.25352230277844L124.20919933319092,142.2003831673459L124.62461471557617,141.67571966928506L125.04003009796142,138.32153281148254L125.45544548034667,141.8241929321084L125.87086086273193,141.2018590757606L126.28627624511718,141.42198170725456L126.70169162750244,137.14875744125848L127.11710700988769,135.17248045265336L127.53252239227295,141.2067489925105L127.9479377746582,143.09988885031356L128.36335315704346,143.38474996218605L128.7787685394287,139.26720836404752L129.19418392181396,142.26338241007295L129.6095993041992,139.450959345855L130.02501468658446,138.27341023965732L130.44043006896973,141.21788486768463L130.85584545135498,143.13624226898705L131.27126083374023,142.92456152757376L131.68667621612548,144.47034271172893L132.10209159851075,146.01786325229736L132.517506980896,144.65988157742981L132.93292236328125,146.91436590985012L133.3483377456665,149.77747783125386L133.76375312805175,144.46213731079072L134.179168510437,137.3984633445119L134.59458389282227,143.53594069789224L135.00999927520752,143.18335679592028L135.42541465759277,139.94232880771978L135.84083003997804,141.99581770955731L136.25624542236326,137.27676804783306L136.67166080474854,141.44213428535662L137.0870761871338,136.71528377269573L137.50249156951907,139.025980343147L137.91790695190429,133.91373369761126L138.33332233428956,138.70599201222578L138.7487377166748,142.136846629355L139.16415309906003,143.85186871198968L139.5795684814453,145.92574569635596L139.99498386383056,144.62727851783072L140.41039924621583,146.89526725433433L140.82581462860105,149.8649974202194L141.24123001098633,146.10687841507766L141.65664539337158,142.88479213662822L142.07206077575685,140.39158853926398L142.4874761581421,139.25489574411506L142.90289154052735,137.2207151458809L143.3183069229126,144.67153173957996L143.73372230529785,144.93066403579243L144.14913768768312,148.40296768578662L144.56455307006834,147.06358021227032L144.97996845245362,149.7126775913124L145.39538383483887,150.08242646829555L145.81079921722414,145.1381051464548L146.22621459960936,145.11933794026916L146.64162998199464,142.14216436849074L147.0570453643799,145.5723190141957L147.4724607467651,149.01611947979745L147.88787612915038,143.37909315781627L148.30329151153563,147.16681773639613L148.7187068939209,147.31551584454772L149.13412227630616,145.39483493696565L149.5495376586914,140.42186524718392L149.96495304107665,140.4860315741308L150.38036842346193,144.25607210849535L150.79578380584718,144.3244984267355L151.21119918823243,146.27328493579114L151.62661457061768,143.6688714271831L152.04202995300292,142.72668161638904L152.4574453353882,143.6636077763357L152.87286071777342,149.13248228894363L153.2882761001587,151.64143976120067L153.70369148254395,148.3992167469319L154.11910686492922,151.57592857869815L154.53452224731444,148.1022447584081L154.94993762969972,144.49879381433666L155.36535301208497,145.5826573112338L155.78076839447021,142.19620834325482L156.19618377685546,142.77118826878046L156.6115991592407,142.35234946532196L157.027014541626,147.42853116695835L157.44242992401124,150.17823020160253L157.85784530639648,147.7625275705321L158.27326068878173,145.342729202413L158.688676071167,145.74850071738848L159.10409145355226,145.77789400620466L159.5195068359375,140.7052641754775L159.93492221832275,140.93701810686724L160.350337600708,144.79034119766922L160.76575298309328,144.58582479866917L161.1811683654785,143.47016994873596L161.59658374786378,143.9869485585131L162.01199913024902,145.88760503911814L162.4274145126343,145.2679045488751L162.84282989501952,148.93502543219438L163.2582452774048,152.21343977958043L163.67366065979004,152.7630386841548L164.0890760421753,145.25551417691096L164.50449142456054,141.23582630313325L164.9199068069458,146.16186624162384L165.33532218933107,142.3370513335734L165.75073757171631,145.31666049784448L166.16615295410156,149.6094134597448L166.5815683364868,150.6444001355533L166.9969837188721,149.3230646945221L167.41239910125734,147.38594355361218L167.82781448364256,154.91111732998294L168.24322986602783,147.63015038215195L168.65864524841308,144.54694265292923L169.07406063079836,136.4234968366451L169.48947601318358,138.81530947136025L169.90489139556885,150.1239110536048L170.3203067779541,146.19477242737761L170.73572216033938,143.2440498860797L171.1511375427246,146.38646522667594L171.56655292510987,146.07466770265398L171.98196830749512,150.72760532346308L172.39738368988037,151.44543109162356L172.81279907226562,147.79589616476184L173.22821445465087,144.43220234410066L173.64362983703614,140.73212659731706L174.0590452194214,146.54176912719032L174.47446060180664,148.67478002752623L174.8898759841919,148.39157538280352L175.30529136657717,146.81990375710728L175.7207067489624,146.67598122860156L176.13612213134763,147.4501173513286L176.5515375137329,144.5538671561298L176.96695289611816,151.08423413687683L177.38236827850344,150.6791960995105L177.79778366088865,151.25711299570656L178.21319904327393,141.5752546453144L178.62861442565918,145.82020885760375L179.04402980804446,148.91815791646852L179.45944519042968,151.16693456961605L179.87486057281495,152.20595959849658L180.2902759552002,152.7411104214316L180.70569133758545,151.8872969638321L181.1211067199707,151.4976902115679L181.53652210235595,151.74763285080093L181.95193748474122,152.23876849443621L182.36735286712647,155.78883660199148L182.78276824951172,154.70877842979192L183.19818363189697,156.6490089070902L183.61359901428224,152.4698148285635L184.0290143966675,154.51863552273772L184.4444297790527,148.69377317573324L184.859845161438,155.458860597986L185.27526054382324,155.9835405807453L185.6906759262085,152.6219499128464L186.10609130859373,146.6526170505891L186.521506690979,148.43415301672178L186.93692207336426,150.39483835533764L187.35233745574953,152.83442243059002L187.76775283813475,151.86952980501616L188.18316822052003,154.89334722848275L188.59858360290528,149.8288108202701L189.01399898529053,149.63478606310937L189.42941436767578,154.7609335127461L189.84482975006102,158.54318926526048L190.2602451324463,157.44517508199417L190.67566051483155,156.72907873801876L191.0910758972168,155.00547020499164L191.50649127960205,153.89182241009573L191.92190666198732,152.94878352182985L192.33732204437257,152.2008878161467L192.7527374267578,152.9928542966726L193.16815280914307,151.55753383807257L193.58356819152831,151.9747804777205L193.9989835739136,156.3162435849935L194.4143989562988,153.2337406899848L194.8298143386841,154.33595430867948L195.24522972106934,151.188697852393L195.6606451034546,145.38218413918662L196.07606048583983,143.841680960795L196.49147586822508,144.73551275269543L196.90689125061036,146.5945364455333L197.3223066329956,150.0417134397699L197.73772201538085,148.47054306103848L198.1531373977661,150.9153284512002L198.56855278015138,151.39980856745908L198.98396816253663,150.77490745370315L199.39938354492188,149.57794001115982L199.81479892730712,156.7677445513883L200.2302143096924,156.87276039091037L200.64562969207765,153.94534117794518L201.06104507446287,156.93315508583203L201.47646045684814,154.04660755584368L201.8918758392334,156.52831951477287L202.30729122161867,155.95628440604784L202.7227066040039,154.77969337688214L203.13812198638917,152.1588334738233L203.5535373687744,150.05799429547548L203.9689527511597,141.6362232304445L204.3843681335449,140.6993914273068L204.79978351593016,142.45078786230718L205.21519889831544,144.666306625004L205.63061428070068,149.09051264956435L206.04602966308593,154.19621919810817L206.46144504547118,153.7549189185661L206.87686042785646,152.69684805697472L207.2922758102417,152.6339811513338L207.70769119262695,154.81100933267913L208.1231065750122,151.9729777271924L208.53852195739748,153.05234542408778L208.95393733978273,154.8337603837952L209.36935272216795,152.15033421602547L209.78476810455322,152.86134561133193L210.20018348693847,156.53400467008123L210.61559886932375,157.39725100672862L211.03101425170897,158.62598670326165L211.44642963409424,152.98962219916598L211.8618450164795,156.00167591754914L212.27726039886477,150.95503630349643L212.69267578125,155.2636101836713L213.10809116363524,152.1355443643256L213.5235065460205,154.14341648169903L213.93892192840576,155.47420512599476L214.354337310791,158.33865597883246L214.76975269317626,151.98780973796505L215.18516807556153,155.47072243711256L215.60058345794678,156.04958082807676L216.01599884033203,153.7337701567363L216.43141422271728,153.2330793782456L216.84682960510253,160.38256465591547L217.2622449874878,152.9657910806981L217.67766036987302,158.4580799191164L218.0930757522583,151.33717232276337L218.50849113464355,157.33800338019617L218.92390651702883,156.2813050121419L219.33932189941405,155.90198313570895L219.75473728179932,155.91928947419643L220.17015266418457,159.43197760550058L220.58556804656985,161.35764099611382L221.00098342895507,151.57644602224914L221.41639881134031,152.27103090137396L221.8318141937256,152.03360590327048L222.24722957611084,156.27506683682768L222.6626449584961,155.90809935285L223.07806034088134,159.30846649002345L223.4934757232666,158.67765864429202L223.90889110565186,157.8441891476982L224.3243064880371,148.7926043903425L224.73972187042236,151.46583318551012L225.1551372528076,149.55970077582407L225.57055263519288,153.2030694959407L225.9859680175781,158.47092192154983L226.40138339996338,156.4879884129799L226.81679878234863,161.60023034524517L227.2322141647339,160.16811500670525L227.64762954711912,162.9934068313483L228.0630449295044,159.4383298848902L228.47846031188965,161.6389871299576L228.89387569427493,155.98569719133326L229.30929107666014,153.51006862431262L229.7247064590454,154.8713263667641L230.14012184143067,152.3437778630632L230.55553722381592,155.69083509887298L230.97095260620117,156.5095894903098L231.38636798858641,160.47302555855788L231.8017833709717,158.26579656665814L232.21719875335694,155.2292188742098L232.6326141357422,160.23469556664404L233.04802951812744,162.41745778044225L233.46344490051268,162.9396094415719L233.87886028289796,153.3203025977921L234.29427566528318,156.48912280776227L234.70969104766846,155.7563608776092L235.1251064300537,151.12246954953923L235.54052181243898,153.0241308035636L235.9559371948242,155.5105716372608L236.37135257720948,153.28124605983004L236.78676795959473,155.36799897077606L237.20218334198,156.52706019393324L237.61759872436522,155.73121723839503L238.03301410675047,152.2044352258024L238.44842948913575,152.5938355671442L238.863844871521,155.11500483721264L239.27926025390624,158.81769348626324L239.6946756362915,156.22776667279902L240.11009101867677,154.14326124724096L240.52550640106202,157.35555958776766L240.94092178344727,157.6893905953803L241.3563371658325,156.18963337884534L241.77175254821776,159.18813556977742L242.18716793060304,155.73559530236176L242.60258331298826,152.22791935413468L243.01799869537354,151.94684022554225L243.43341407775878,151.67902491295115L243.84882946014406,152.2868462762262L244.26424484252928,156.1405860695101L244.67966022491456,156.30788477400336L245.0950756072998,154.45750477921652L245.51049098968505,158.4717186714836L245.9259063720703,154.54234850055215L246.34132175445555,151.8678449427164L246.75673713684083,156.10742351176634L247.17215251922607,158.3715799338639L247.58756790161132,160.88278762374787L248.00298328399657,154.21175309795984L248.41839866638185,159.85716740548622L248.8338140487671,158.81812379161593L249.24922943115234,162.5553647432782L249.6646448135376,161.66173329551717L250.08006019592284,163.89679963537347L250.49547557830812,163.63090647880762L250.91089096069334,164.88981754414792L251.3263063430786,160.35710623630087L251.74172172546386,158.75787937672854L252.15713710784914,160.87478171311585L252.57255249023436,155.70790403651105L252.98796787261963,152.5903183711592L253.40338325500488,158.7090921000859L253.81879863739013,157.05357557675404L254.23421401977538,159.88413051197028L254.64962940216063,153.2433238290946L255.0650447845459,153.822011232418L255.48046016693115,155.12837543247338L255.8958755493164,157.80983868449576L256.31129093170165,159.78827775421007L256.7267063140869,157.4115709589603L257.14212169647215,163.86720623494L257.5575370788574,163.67530639145068L257.9729524612427,164.1308801668235L258.3883678436279,165.46617857255828L258.8037832260132,162.64940001674037L259.2191986083984,162.58931615034547L259.6346139907837,162.63863278521438L260.0500293731689,159.83740218036294L260.4654447555542,158.07592393885386L260.88086013793946,161.96711591581644L261.29627552032474,161.30645864516373" fill="none"></path></g></g></g></g><g opacity="0.2"><g><g><g><path style="fill: none;" stroke="rgb(255, 112, 67)" stroke-width="2px" d="M20.770769119262695,42.62943121347557L21.186184501647947,3.707284650521437L21.601599884033202,-8.264175906625578L22.017015266418454,0.9656120826681559L22.43243064880371,-11.110182187530173L22.847846031188965,19.227911088084145L23.263261413574217,-11.605052467260009L23.678676795959472,-28.95765129511999L24.094092178344724,4.798026861075395L24.50950756072998,-1.0653860225369698L25.340338325500486,-0.36040678635436885L25.75575370788574,6.528548599021789L26.171169090270993,-20.545683647290872L26.58658447265625,-7.289346915214696L27.001999855041504,5.046915347113038L27.417415237426756,-29.480643232501254L29.079076766967773,-16.31543012387376L29.494492149353025,8.003541358661598L29.90990753173828,-14.089778158101586L30.325322914123532,-41.145199614926405L30.740738296508788,22.162866881089528L31.156153678894043,8.938929134425234L31.571569061279295,-8.445477887719473L31.98698444366455,-6.4788051204363555L32.4023998260498,11.269269287924992L32.81781520843506,17.033358367244116L33.23323059082031,12.41377349104783L33.64864597320557,14.889755473207865L34.064061355590816,23.265023176219653L34.47947673797607,7.795228407235281L34.89489212036133,16.28173026366325L35.31030750274658,14.580700818783205L35.72572288513184,8.317771343359926L36.141138267517086,19.71091828198118L36.55655364990234,30.1229265799538L36.971969032287596,0.610806563358483L37.38738441467285,7.8058862791687345L37.80279979705811,31.444313646539598L38.218215179443355,12.355285169461878L38.63363056182861,36.72955470149668L39.049045944213866,27.385862182892126L39.46446132659912,28.413082531456965L39.879876708984376,23.35737564521272L40.295292091369625,38.56275593733842L40.71070747375488,39.570834653384225L41.126122856140135,53.593994636831056L41.54153823852539,54.733228983099906L41.95695362091064,42.06839232750709L42.372369003295894,56.70512434394686L42.78778438568115,20.814043474559785L43.203199768066405,37.56840720708714L43.61861515045166,45.97784626889218L44.03403053283691,57.648665037264905L44.449445915222164,34.050009728572476L44.86486129760742,32.765724344770476L45.280276679992674,56.39999254260635L45.69569206237793,57.83788361946234L46.11110744476318,54.598694027629676L46.52652282714843,54.79755432102189L46.94193820953369,66.88575520488999L47.357353591918944,63.847316438056346L47.7727689743042,66.04456316643608L48.18818435668945,63.27746294847109L48.6035997390747,72.09780905501812L49.01901512145996,79.76760125730047L49.43443050384521,84.14550529921011L49.84984588623047,73.16787357612247L50.26526126861572,81.01691180637631L50.68067665100097,63.537032938087265L51.09609203338623,76.29462380063961L51.51150741577148,84.3991437459099L51.92692279815674,83.31868130096804L52.34233818054199,81.56795450647375L52.75775356292724,85.46710505060167L53.1731689453125,89.46009685736304L53.58858432769775,77.70949765518259L54.00399971008301,82.58659656787265L54.419415092468256,99.59212924018841L54.83483047485351,87.0105586860534L55.25024585723877,89.84862473420935L55.66566123962402,91.97410215646522L56.08107662200928,104.8196736336699L56.496492004394526,89.6149077643164L56.91190738677978,99.11469911453146L57.327322769165036,95.641969790144L57.74273815155029,106.9386169060597L58.15815353393555,80.47087901503697L58.573568916320795,99.22003717249889L58.98898429870605,80.4452386801195L59.404399681091306,94.42562538596205L59.81981506347656,93.15655878159495L60.235230445861816,98.72598218452451L60.650645828247065,103.38685154468467L61.06606121063232,78.15760090928875L61.481476593017575,100.95196499332788L61.89689197540283,101.0498472672709L62.312307357788086,107.23983767013861L62.727722740173334,90.6519588772367L63.14313812255859,97.40240919076831L63.558553504943845,86.77216265043359L63.9739688873291,103.42882134635606L64.38938426971436,101.94880686213565L64.8047996520996,103.96068696646682L65.22021503448487,90.37050598427159L65.63563041687011,88.72631064582154L66.05104579925538,112.4442584989042L66.46646118164062,102.68715398117862L66.88187656402587,95.58087017177613L67.29729194641114,106.86899807963862L67.71270732879638,102.86142554785965L68.12812271118163,114.62145377642912L68.5435380935669,106.68338332331666L68.95895347595214,104.78372990149525L69.3743688583374,92.52904407800173L69.78978424072265,114.26786528684134L70.20519962310792,111.2319432902093L70.62061500549316,115.61732674778841L71.03603038787843,105.30090845418556L71.45144577026367,113.29590754030832L71.86686115264892,96.76841941642171L72.28227653503417,115.10447278614872L72.69769191741943,117.20813819999093L73.11310729980468,125.63521828485207L73.52852268218994,108.24223297554141L73.94393806457519,116.46458030320666L74.35935344696045,118.21577973060266L74.7747688293457,97.7375886288347L75.19018421173097,107.24117285808592L75.60559959411621,117.77469507508681L76.02101497650146,114.72790252171554L76.43643035888671,109.06054958155282L76.85184574127197,123.2097962073519L77.26726112365722,115.35973000053683L77.68267650604248,117.53059199717892L78.09809188842773,115.41776932086617L78.513507270813,126.05774028315348L78.92892265319824,117.67746267138362L79.3443380355835,110.4524180296053L79.75975341796875,117.39078718485467L80.175168800354,103.39728491598981L80.59058418273925,114.22725430476237L81.00599956512451,114.98458945063135L81.42141494750976,126.5765376035321L81.83683032989502,111.64557978995865L82.25224571228027,122.49713668651658L82.66766109466553,120.62272186164618L83.08307647705078,123.99996752406678L83.49849185943604,118.42274567825912L83.91390724182128,128.35785556258924L84.32932262420654,128.93978482281304L84.74473800659179,130.4045332643084L85.16015338897705,122.74602517255423L85.5755687713623,113.6349389365236L85.99098415374756,128.6053615973894L86.40639953613281,126.53499317147228L86.82181491851807,124.36281961852796L87.23723030090332,115.60871301315484L87.65264568328858,124.91032938768515L88.06806106567382,121.3850669162732L88.48347644805908,123.96872648926411L88.89889183044433,126.96473463734719L89.31430721282959,131.1888321172196L89.72972259521484,126.96482916392755L90.1451379776001,124.03716373343092L90.56055335998535,120.1868952471618L90.97596874237061,104.41305573251086L91.39138412475586,127.16216521621176L91.80679950714112,119.5019438301889L92.22221488952636,118.25888385123811L92.63763027191162,131.12046576798804L93.05304565429687,130.35942045384067L93.46846103668213,124.33181490017614L93.88387641906738,117.79006746021476L94.29929180145264,130.96456780536076L94.71470718383789,142.69192528459988L95.13012256622315,127.12435458407539L95.5455379486084,115.72090424819697L95.96095333099366,134.56675128152511L96.3763687133789,133.9767872619723L96.79178409576416,116.84464805111243L97.2071994781494,130.73418289742483L97.62261486053467,127.461259132233L98.03803024291992,134.1976013536487L98.45344562530518,121.7921456345114L98.86886100769043,138.77058462573694L99.28427639007569,143.43536502315874L99.69969177246094,141.6149721389532L100.1151071548462,135.38400446350767L100.53052253723143,131.9179274472117L100.9459379196167,121.93890996631325L101.36135330200194,135.95869062451288L101.7767686843872,129.7418192253607L102.19218406677246,138.59472973883518L102.60759944915772,120.81170412739277L103.02301483154297,122.09244476443197L103.43843021392823,135.71882942689777L103.85384559631348,118.00259866028877L104.26926097869874,120.92376538838694L104.68467636108397,135.276657715708L105.10009174346924,129.5778746875819L105.51550712585448,131.29785671182032L105.93092250823975,125.57424864053219L106.346337890625,137.48184467683637L106.76175327301026,147.2093978223829L107.1771686553955,141.69251938230036L107.59258403778077,118.39613644589313L108.00799942016602,138.23334280636928L108.42341480255126,137.88806084002897L108.83883018493651,126.51312208394587L109.25424556732177,142.44953550096068L109.66966094970702,137.65306776130143L110.08507633209229,125.92821523644133L110.50049171447753,142.6691089312701L110.9159070968628,127.64076510830041L111.33132247924804,140.10478004395893L111.7467378616333,142.1895755892006L112.16215324401855,143.79057228043484L112.5775686264038,142.1112012382754L112.99298400878905,147.68883663787207L113.40839939117431,139.15465793748467L113.82381477355956,145.74123460817273L114.23923015594482,126.20993989332491L114.65464553833007,136.43957097035224L115.07006092071533,137.87555969977888L115.48547630310058,153.53880311543094L115.90089168548585,141.12481637241785L116.3163070678711,135.25935935150562L116.73172245025634,137.2210576574983L117.14713783264159,142.58882041709302L117.56255321502685,143.16271491798787L117.9779685974121,138.30728622384098L118.39338397979736,137.08955936842153L118.80879936218261,136.10863341257865L119.22421474456787,127.60665282861989L119.63963012695312,142.23780777681955L120.05504550933838,144.12734685454447L120.47046089172363,151.21006991379699L120.88587627410888,129.37441803922061L121.30129165649413,134.19471829294832L121.71670703887939,130.54875719426357L122.13212242126464,148.51488079182633L122.5475378036499,144.11814232878376L122.96295318603515,143.65127554847993L123.37836856842041,146.50720712032032L123.79378395080566,132.0386851535972L124.20919933319092,146.62067446419707L124.62461471557617,140.88872442219386L125.04003009796142,133.2902525247787L125.45544548034667,147.07818311304715L125.87086086273193,140.2683582912389L126.28627624511718,141.75216565449549L126.70169162750244,130.73892104226442L127.11710700988769,132.20806496974564L127.53252239227295,150.25815180229623L127.9479377746582,145.93959863701815L128.36335315704346,143.81204162999478L128.7787685394287,133.09089596683972L129.19418392181396,146.75764347911107L129.6095993041992,135.23232474952812L130.02501468658446,136.50708658036075L130.44043006896973,145.63459680972562L130.85584545135498,146.0137783709407L131.27126083374023,142.60704041545375L131.68667621612548,146.7890144879617L132.10209159851075,148.33914406315003L132.517506980896,142.62290906512848L132.93292236328125,150.29609240848058L133.3483377456665,154.07214571335953L133.76375312805175,136.48912653009597L134.179168510437,126.8029523950937L134.59458389282227,152.7421567279627L135.00999927520752,142.65448094296235L135.42541465759277,135.08078682541907L135.84083003997804,145.07605106231364L136.25624542236326,130.1981935552467L136.67166080474854,147.69018364164194L137.0870761871338,129.6250080037044L137.50249156951907,142.4920251988239L137.91790695190429,126.24536372930767L138.33332233428956,145.89437948414758L138.7487377166748,147.28312855504882L139.16415309906003,146.42440183594167L139.5795684814453,149.03656117290538L139.99498386383056,142.67957775004285L140.41039924621583,150.29725035908973L140.82581462860105,154.31959266904698L141.24123001098633,140.46969990736508L141.65664539337158,138.05166271895402L142.07206077575685,136.65178314321764L142.4874761581421,137.54985655139168L142.90289154052735,134.16944424852966L143.3183069229126,155.84775663012857L143.73372230529785,145.31936248011118L144.14913768768312,153.61142316077786L144.56455307006834,145.0544990019959L144.97996845245362,153.68632365987548L145.39538383483887,150.6370497837703L145.81079921722414,137.72162316369366L146.22621459960936,145.0911871309907L146.64162998199464,137.6764040108231L147.0570453643799,150.71755098275312L147.4724607467651,154.1818201782001L147.88787612915038,134.92355367484447L148.30329151153563,152.8484046042659L148.7187068939209,147.5385630067751L149.13412227630616,142.5138135755925L149.5495376586914,132.96241071251129L149.96495304107665,140.58228106455113L150.38036842346193,149.91113291004214L150.79578380584718,144.42713790409573L151.21119918823243,149.1964646993746L151.62661457061768,139.76225116427105L152.04202995300292,141.313396900198L152.4574453353882,145.06899701625568L152.87286071777342,157.33579405785542L153.2882761001587,155.40487596958624L153.70369148254395,143.53588222552878L154.11910686492922,156.34099632634752L154.53452224731444,142.89171902797298L154.94993762969972,139.09361739822953L155.36535301208497,147.2084525565795L155.78076839447021,137.11653489128634L156.19618377685546,143.6336581570689L156.6115991592407,141.72409126013423L157.027014541626,155.04280371941286L157.44242992401124,154.30277875356884L157.85784530639648,144.1389736239264L158.27326068878173,141.71303165023434L158.688676071167,146.35715798985166L159.10409145355226,145.82198393942895L159.5195068359375,133.09631942938677L159.93492221832275,141.2846490039518L160.350337600708,150.57032583387215L160.76575298309328,144.2790502001691L161.1811683654785,141.7966876738361L161.59658374786378,144.76211647317888L162.01199913024902,148.7385897600257L162.4274145126343,144.3383538135105L162.84282989501952,154.43570675717328L163.2582452774048,157.1310613006595L163.67366065979004,153.58743704101636L164.0890760421753,133.99422741604522L164.50449142456054,135.20629449246675L164.9199068069458,153.55092614935967L165.33532218933107,136.59982897149774L165.75073757171631,149.7860742442511L166.16615295410156,156.04854290259522L166.5815683364868,152.19688014926606L166.9969837188721,147.34106153297526L167.41239910125734,144.48026184224733L167.82781448364256,166.1988779945391L168.24322986602783,136.7086999604054L168.65864524841308,139.9221310590952L169.07406063079836,124.23832811221895L169.48947601318358,142.40302842343294L169.90489139556885,167.08681342697156L170.3203067779541,140.30106448803687L170.73572216033938,138.8179660741328L171.1511375427246,151.1000882375703L171.56655292510987,145.60697141662098L171.98196830749512,157.70701175467678L172.39738368988037,152.52216974386428L172.81279907226562,142.32159377446922L173.22821445465087,139.3866616131089L173.64362983703614,135.18201297714165L174.0590452194214,155.25623292200012L174.47446060180664,151.87429637803012L174.8898759841919,147.96676841571949L175.30529136657717,144.4623963185629L175.7207067489624,146.46009743584293L176.13612213134763,148.61132153541917L176.5515375137329,140.20949186333158L176.96695289611816,160.8797846079974L177.38236827850344,150.07163904346103L177.79778366088865,152.1239883400007L178.21319904327393,127.0524671197261L178.62861442565918,152.18764017603775L179.04402980804446,153.56508150476571L179.45944519042968,154.5400995493373L179.87486057281495,153.76449714181743L180.2902759552002,153.5438366558341L180.70569133758545,150.60657677743288L181.1211067199707,150.91328008317154L181.53652210235595,152.1225468096505L181.95193748474122,152.97547195988918L182.36735286712647,161.11393876332443L182.78276824951172,153.08869117149254L183.19818363189697,159.55935462303756L183.61359901428224,146.20102371077354L184.0290143966675,157.591866563999L184.4444297790527,139.95647965522656L184.859845161438,165.60649173136505L185.27526054382324,156.7705605548843L185.6906759262085,147.57956391099796L186.10609130859373,137.6986177572032L186.521506690979,151.10645696592078L186.93692207336426,153.33586636326152L187.35233745574953,156.4937985434686L187.76775283813475,150.42219086665537L188.18316822052003,159.42907336368268L188.59858360290528,142.23200620795112L189.01399898529053,149.3437489273683L189.42941436767578,162.45015468720118L189.84482975006102,164.21657289403205L190.2602451324463,155.79815380709465L190.67566051483155,155.6549342220556L191.0910758972168,152.42005740545102L191.50649127960205,152.22135071775182L191.92190666198732,151.5342251894311L192.33732204437257,151.07904425762192L192.7527374267578,154.18080401746144L193.16815280914307,149.40455315017257L193.58356819152831,152.60065043719234L193.9989835739136,162.82843824590304L194.4143989562988,148.60998634747187L194.8298143386841,155.98927473672148L195.24522972106934,146.46781316796327L195.6606451034546,136.67241356937703L196.07606048583983,141.53092619320756L196.49147586822508,146.07626044054606L196.90689125061036,149.38307198479012L197.3223066329956,155.21247893112482L197.73772201538085,146.11378749294138L198.1531373977661,154.58250653644274L198.56855278015138,152.12652874184732L198.98396816253663,149.8375557830693L199.39938354492188,147.78248884734484L199.81479892730712,167.55245136173096L200.2302143096924,157.03028415019352L200.64562969207765,149.55421235849735L201.06104507446287,161.4148759476623L201.47646045684814,149.7167862608612L201.8918758392334,160.25088745316668L202.30729122161867,155.09823174296028L202.7227066040039,153.01480683313355L203.13812198638917,148.227543619235L203.5535373687744,146.9067355279538L203.9689527511597,129.00356663289807L204.3843681335449,139.29414372260024L204.79978351593016,145.07788251480773L205.21519889831544,147.98958476904926L205.63061428070068,155.7268216864049L206.04602966308593,161.85477902092387L206.46144504547118,153.09296849925295L206.87686042785646,151.10974176458762L207.2922758102417,152.53968079287245L207.70769119262695,158.07655160469707L208.1231065750122,147.71593031896228L208.53852195739748,154.67139696943084L208.95393733978273,157.50588282335636L209.36935272216795,148.12519496437088L209.78476810455322,153.92786270429164L210.20018348693847,162.0429932582052L210.61559886932375,158.69212051169973L211.03101425170897,160.46909024806118L211.44642963409424,144.53507544302252L211.8618450164795,160.51975649512391L212.27726039886477,143.38507688241737L212.69267578125,161.7264710039336L213.10809116363524,147.44344563530703L213.5235065460205,157.15522465775916L213.93892192840576,157.47038809243836L214.354337310791,162.63533225808908L214.76975269317626,142.46154037666398L215.18516807556153,160.69509148583379L215.60058345794678,156.9178684145231L216.01599884033203,150.2600541497256L216.43141422271728,152.48204321050957L216.84682960510253,171.1067925724203L217.2622449874878,141.84063071787205L217.67766036987302,166.6965131767439L218.0930757522583,140.65581092823382L218.50849113464355,166.33924996634533L218.92390651702883,154.6962574600605L219.33932189941405,155.3330003210595L219.75473728179932,155.94524898192768L220.17015266418457,164.70100980245678L220.58556804656985,164.2461360820337L221.00098342895507,136.90465356145214L221.41639881134031,153.31290822006122L221.8318141937256,151.67746840611522L222.24722957611084,162.6372582371635L222.6626449584961,155.35764812688342L223.07806034088134,164.40901719578366L223.4934757232666,157.7314468756949L223.90889110565186,156.59398490280745L224.3243064880371,135.21522725430896L224.73972187042236,155.4756763782616L225.1551372528076,146.700502161295L225.57055263519288,158.66812257611568L225.9859680175781,166.3727005599635L226.40138339996338,153.513588150125L226.81679878234863,169.268593243643L227.2322141647339,158.0199419988954L227.64762954711912,167.23134456831284L228.0630449295044,154.1057144652031L228.47846031188965,164.93997299755864L228.89387569427493,147.5057622833968L229.30929107666014,149.79662577378167L229.7247064590454,156.9132129804413L230.14012184143067,148.55245510751186L230.55553722381592,160.71142095258767L230.97095260620117,157.73772107746504L231.38636798858641,166.41817966093004L231.8017833709717,154.9549530788085L232.21719875335694,150.67435233553732L232.6326141357422,167.74291060529538L233.04802951812744,165.6916011011395L233.46344490051268,163.72283693326634L233.87886028289796,138.89134233212246L234.29427566528318,161.24235312271756L234.70969104766846,154.6572179823797L235.1251064300537,144.1716325574342L235.54052181243898,155.8766226846002L235.9559371948242,159.24023288780657L236.37135257720948,149.93725769368388L236.78676795959473,158.49812833719506L237.20218334198,158.26565202866908L237.61759872436522,154.53745280508775L238.03301410675047,146.91426220691343L238.44842948913575,153.17793607915692L238.863844871521,158.89675874231528L239.27926025390624,164.37172645983915L239.6946756362915,152.34287645260264L240.11009101867677,151.01650310890383L240.52550640106202,162.17400709855772L240.94092178344727,158.19013710679923L241.3563371658325,153.93999755404292L241.77175254821776,163.68588885617555L242.18716793060304,150.5567849012383L242.60258331298826,146.966405431794L243.01799869537354,151.52522153265363L243.43341407775878,151.27730194406445L243.84882946014406,153.19857832113885L244.26424484252928,161.92119575943593L244.67966022491456,156.55883283074317L245.0950756072998,151.68193478703634L245.51049098968505,164.4930395098842L245.9259063720703,148.648293244155L246.34132175445555,147.8560896059628L246.75673713684083,162.4667913653412L247.17215251922607,161.76781456701022L247.58756790161132,164.64959915857384L248.00298328399657,144.20520130927775L248.41839866638185,168.32528886677585L248.8338140487671,157.25955837081045L249.24922943115234,168.1612261707716L249.6646448135376,160.32128612387558L250.08006019592284,167.24939914515795L250.49547557830812,163.2320667439588L250.91089096069334,166.77818414215844L251.3263063430786,153.5580392745303L251.74172172546386,156.35903908737006L252.15713710784914,164.0501352176968L252.57255249023436,147.95758752160387L252.98796787261963,147.91393987313143L253.40338325500488,167.887252693476L253.81879863739013,154.5703007917562L254.23421401977538,164.1299629147947L254.64962940216063,143.282113804781L255.0650447845459,154.69004233740307L255.48046016693115,157.08792173255642L255.8958755493164,161.83203356252935L256.31129093170165,162.75593635878155L256.7267063140869,153.84651076608574L257.14212169647215,173.5506591489095L257.5575370788574,163.38745662621673L257.9729524612427,164.81424082988266L258.3883678436279,167.46912618116045L258.8037832260132,158.42423218301354L259.2191986083984,162.49919035075305L259.6346139907837,162.71260773751777L260.0500293731689,155.63555627308574L260.4654447555542,155.43370657659023L260.88086013793946,167.80390388126037L261.29627552032474,160.3154727391846" fill="none"></path></g></g></g></g></g></g><g transform="translate(59, 177)" clip-path="url(#clip_1)"><clipPath id="clip_1"><rect width="270" height="22"></rect></clipPath><g><g><line x1="0" y1="0" x2="0" y2="5" style="visibility: inherit;" fill="rgb(0, 0, 0)" stroke="rgb(204, 204, 204)" stroke-width="1px"></line><line x1="20.770769119262695" y1="0" x2="20.770769119262695" y2="5" style="visibility: inherit;" fill="rgb(0, 0, 0)" stroke="rgb(204, 204, 204)" stroke-width="1px"></line><line x1="41.54153823852539" y1="0" x2="41.54153823852539" y2="5" style="visibility: inherit;" fill="rgb(0, 0, 0)" stroke="rgb(204, 204, 204)" stroke-width="1px"></line><line x1="62.312307357788086" y1="0" x2="62.312307357788086" y2="5" style="visibility: inherit;" fill="rgb(0, 0, 0)" stroke="rgb(204, 204, 204)" stroke-width="1px"></line><line x1="83.08307647705078" y1="0" x2="83.08307647705078" y2="5" style="visibility: inherit;" fill="rgb(0, 0, 0)" stroke="rgb(204, 204, 204)" stroke-width="1px"></line><line x1="103.85384559631348" y1="0" x2="103.85384559631348" y2="5" style="visibility: inherit;" fill="rgb(0, 0, 0)" stroke="rgb(204, 204, 204)" stroke-width="1px"></line><line x1="124.62461471557617" y1="0" x2="124.62461471557617" y2="5" style="visibility: inherit;" fill="rgb(0, 0, 0)" stroke="rgb(204, 204, 204)" stroke-width="1px"></line><line x1="145.39538383483887" y1="0" x2="145.39538383483887" y2="5" style="visibility: inherit;" fill="rgb(0, 0, 0)" stroke="rgb(204, 204, 204)" stroke-width="1px"></line><line x1="166.16615295410156" y1="0" x2="166.16615295410156" y2="5" style="visibility: inherit;" fill="rgb(0, 0, 0)" stroke="rgb(204, 204, 204)" stroke-width="1px"></line><line x1="186.93692207336426" y1="0" x2="186.93692207336426" y2="5" style="visibility: inherit;" fill="rgb(0, 0, 0)" stroke="rgb(204, 204, 204)" stroke-width="1px"></line><line x1="207.70769119262695" y1="0" x2="207.70769119262695" y2="5" style="visibility: inherit;" fill="rgb(0, 0, 0)" stroke="rgb(204, 204, 204)" stroke-width="1px"></line><line x1="228.47846031188965" y1="0" x2="228.47846031188965" y2="5" style="visibility: inherit;" fill="rgb(0, 0, 0)" stroke="rgb(204, 204, 204)" stroke-width="1px"></line><line x1="249.24922943115234" y1="0" x2="249.24922943115234" y2="5" style="visibility: inherit;" fill="rgb(0, 0, 0)" stroke="rgb(204, 204, 204)" stroke-width="1px"></line><line x1="270.01999855041504" y1="0" x2="270.01999855041504" y2="5" style="visibility: inherit;" fill="rgb(0, 0, 0)" stroke="rgb(204, 204, 204)" stroke-width="1px"></line></g><g transform="translate(0, 8)"><text style="text-anchor: middle; visibility: hidden; font-family: Roboto, sans-serif; font-size: 12px; font-weight: 200;" x="0" y="0" dx="0em" dy="0.95em" fill="rgb(33, 33, 33)" stroke="none" stroke-width="1px">-50</text><text style="text-anchor: middle; visibility: inherit; font-family: Roboto, sans-serif; font-size: 12px; font-weight: 200;" x="20.770769119262695" y="0" dx="0em" dy="0.95em" fill="rgb(33, 33, 33)" stroke="none" stroke-width="1px">0</text><text style="text-anchor: middle; visibility: hidden; font-family: Roboto, sans-serif; font-size: 12px; font-weight: 200;" x="41.54153823852539" y="0" dx="0em" dy="0.95em" fill="rgb(33, 33, 33)" stroke="none" stroke-width="1px">50</text><text style="text-anchor: middle; visibility: inherit; font-family: Roboto, sans-serif; font-size: 12px; font-weight: 200;" x="62.312307357788086" y="0" dx="0em" dy="0.95em" fill="rgb(33, 33, 33)" stroke="none" stroke-width="1px">100</text><text style="text-anchor: middle; visibility: hidden; font-family: Roboto, sans-serif; font-size: 12px; font-weight: 200;" x="83.08307647705078" y="0" dx="0em" dy="0.95em" fill="rgb(33, 33, 33)" stroke="none" stroke-width="1px">150</text><text style="text-anchor: middle; visibility: inherit; font-family: Roboto, sans-serif; font-size: 12px; font-weight: 200;" x="103.85384559631348" y="0" dx="0em" dy="0.95em" fill="rgb(33, 33, 33)" stroke="none" stroke-width="1px">200</text><text style="text-anchor: middle; visibility: hidden; font-family: Roboto, sans-serif; font-size: 12px; font-weight: 200;" x="124.62461471557617" y="0" dx="0em" dy="0.95em" fill="rgb(33, 33, 33)" stroke="none" stroke-width="1px">250</text><text style="text-anchor: middle; visibility: inherit; font-family: Roboto, sans-serif; font-size: 12px; font-weight: 200;" x="145.39538383483887" y="0" dx="0em" dy="0.95em" fill="rgb(33, 33, 33)" stroke="none" stroke-width="1px">300</text><text style="text-anchor: middle; visibility: hidden; font-family: Roboto, sans-serif; font-size: 12px; font-weight: 200;" x="166.16615295410156" y="0" dx="0em" dy="0.95em" fill="rgb(33, 33, 33)" stroke="none" stroke-width="1px">350</text><text style="text-anchor: middle; visibility: inherit; font-family: Roboto, sans-serif; font-size: 12px; font-weight: 200;" x="186.93692207336426" y="0" dx="0em" dy="0.95em" fill="rgb(33, 33, 33)" stroke="none" stroke-width="1px">400</text><text style="text-anchor: middle; visibility: hidden; font-family: Roboto, sans-serif; font-size: 12px; font-weight: 200;" x="207.70769119262695" y="0" dx="0em" dy="0.95em" fill="rgb(33, 33, 33)" stroke="none" stroke-width="1px">450</text><text style="text-anchor: middle; visibility: inherit; font-family: Roboto, sans-serif; font-size: 12px; font-weight: 200;" x="228.47846031188965" y="0" dx="0em" dy="0.95em" fill="rgb(33, 33, 33)" stroke="none" stroke-width="1px">500</text><text style="text-anchor: middle; visibility: hidden; font-family: Roboto, sans-serif; font-size: 12px; font-weight: 200;" x="249.24922943115234" y="0" dx="0em" dy="0.95em" fill="rgb(33, 33, 33)" stroke="none" stroke-width="1px">550</text><text style="text-anchor: middle; visibility: hidden; font-family: Roboto, sans-serif; font-size: 12px; font-weight: 200;" x="270.01999855041504" y="0" dx="0em" dy="0.95em" fill="rgb(33, 33, 33)" stroke="none" stroke-width="1px">600</text></g><line x1="0" y1="0" x2="270.01999855041504" y2="0" fill="rgb(0, 0, 0)" stroke="rgb(204, 204, 204)" stroke-width="1px"></line></g></g></g></g></svg>